<?xml version="1.0" encoding="UTF-8" standalone="no"?>
<!-- Created with Inkscape (http://www.inkscape.org/) -->

<svg
   xmlns:dc="http://purl.org/dc/elements/1.1/"
   xmlns:cc="http://creativecommons.org/ns#"
   xmlns:rdf="http://www.w3.org/1999/02/22-rdf-syntax-ns#"
   xmlns:svg="http://www.w3.org/2000/svg"
   xmlns="http://www.w3.org/2000/svg"
   xmlns:sodipodi="http://sodipodi.sourceforge.net/DTD/sodipodi-0.dtd"
   xmlns:inkscape="http://www.inkscape.org/namespaces/inkscape"
   width="37.423988mm"
   height="37.12664mm"
   viewBox="0 0 37.423988 37.12664"
   version="1.1"
   id="svg8"
   inkscape:version="0.92.2 (5c3e80d, 2017-08-06)">
  <defs
     id="defs2" />
  <sodipodi:namedview
     id="base"
     pagecolor="#ffffff"
     bordercolor="#666666"
     borderopacity="1.0"
     inkscape:pageopacity="0.0"
     inkscape:pageshadow="2"
     inkscape:zoom="11.2"
     inkscape:cx="54.271662"
     inkscape:cy="110.25143"
     inkscape:document-units="mm"
     inkscape:current-layer="layer1"
     showgrid="false"
     fit-margin-top="1"
     fit-margin-left="1"
     fit-margin-right="1"
     fit-margin-bottom="1"
     showguides="true"
     inkscape:guide-bbox="true"
     inkscape:window-width="2560"
     inkscape:window-height="1377"
     inkscape:window-x="1912"
     inkscape:window-y="-8"
     inkscape:window-maximized="1">
    <sodipodi:guide
       position="0.70158252,22.884952"
       orientation="1,0"
       id="guide4617"
       inkscape:locked="false" />
    <sodipodi:guide
       position="20.145441,36.44888"
       orientation="0,1"
       id="guide4619"
       inkscape:locked="false" />
    <sodipodi:guide
       position="36.582517,16.604118"
       orientation="1,0"
       id="guide4621"
       inkscape:locked="false" />
    <sodipodi:guide
       position="17.439337,0.70158247"
       orientation="0,1"
       id="guide4623"
       inkscape:locked="false" />
  </sodipodi:namedview>
  <metadata
     id="metadata5">
    <rdf:RDF>
      <cc:Work
         rdf:about="">
        <dc:format>image/svg+xml</dc:format>
        <dc:type
           rdf:resource="http://purl.org/dc/dcmitype/StillImage" />
        <dc:title></dc:title>
      </cc:Work>
    </rdf:RDF>
  </metadata>
  <g
     inkscape:label="Vrstva 1"
     inkscape:groupmode="layer"
     id="layer1"
     transform="translate(38.744732,-130.27001)">
    <ellipse
       style="fill:#ffffff;fill-opacity:1;stroke:none;stroke-width:0.26499999;stroke-linecap:round;stroke-linejoin:round;stroke-miterlimit:4;stroke-dasharray:0.13249999, 0.13249999000000001;stroke-dashoffset:0;stroke-opacity:1"
       id="path4625"
       cx="-20.102682"
       cy="148.78801"
       rx="17.773424"
       ry="17.673197" />
    <g
       transform="matrix(0.35277777,0,0,-0.35277777,-37.993726,166.79613)"
       inkscape:label="ink_ext_XXXXXX"
       id="g5334">
      <g
         transform="scale(0.1)"
         id="g5336">
        <path
           inkscape:connector-curvature="0"
           id="path5338"
           style="fill:#3368b7;fill-opacity:1;fill-rule:evenodd;stroke:none"
           d="m 504.953,1004.79 c 274.91,0 497.857,-222.95 497.857,-497.86 C 1002.81,232.016 779.863,9.07031 504.953,9.07031 230.039,9.07031 7.09766,232.016 7.09766,506.93 c 0,274.91 222.94134,497.86 497.85534,497.86 z m 0,-162.497 c 185.184,0 335.363,-150.184 335.363,-335.363 0,-185.184 -150.179,-335.367 -335.363,-335.367 -185.183,0 -335.367,150.183 -335.367,335.367 0,185.179 150.184,335.363 335.367,335.363" />
        <path
           inkscape:connector-curvature="0"
           id="path5340"
           style="fill:none;stroke:#ffffff;stroke-width:28.3465004;stroke-linecap:butt;stroke-linejoin:miter;stroke-miterlimit:22.92560005;stroke-dasharray:none;stroke-opacity:1"
           d="M 4.85547,499.234 H 1009" />
        <path
           inkscape:connector-curvature="0"
           id="path5342"
           style="fill:none;stroke:#2154ac;stroke-width:6.72100019;stroke-linecap:butt;stroke-linejoin:miter;stroke-miterlimit:22.92560005;stroke-dasharray:none;stroke-opacity:1"
           d="M 502.402,714.32 204.07,565.355 l 17.551,-26.984 280.781,136.125 287.196,-136.125 14.847,26.984 z" />
        <path
           inkscape:connector-curvature="0"
           id="path5344"
           style="fill:#2154ac;fill-opacity:1;fill-rule:evenodd;stroke:none"
           d="m 510.703,620.793 c 1.106,1.383 2.766,6.363 0.828,6.922 -27.945,-0.559 -89.375,-46.211 -92.972,-97.402 -2.211,-31.543 21.582,-52.571 83.566,-43.165 40.953,6.086 86.605,38.184 94.91,76.09 5.809,26.844 -5.812,57.832 -51.191,58.664 -31.543,0.555 -65.856,-17.984 -71.668,-37.632 -0.551,-4.149 5.262,-5.258 8.578,-2.766 4.703,16.601 24.351,27.945 37.633,30.992 27.39,5.809 52.297,-4.43 59.488,-26.566 20.199,-61.981 -57.551,-90.481 -84.391,-89.098 -24.074,1.109 -58.382,1.66 -59.765,37.356 -2.492,58.937 66.957,91.312 74.984,86.605 z M 468.09,469.438 c 8.855,6.64 24.902,9.132 37.355,9.96 25.457,1.383 53.68,-5.531 80.243,-2.214 9.96,1.386 16.878,3.597 22.414,13.836 1.105,1.664 6.086,0.281 6.086,-1.657 -0.829,-10.238 -4.704,-18.543 -17.153,-23.523 -9.965,-4.149 -20.758,-3.871 -32.375,-2.488 -18.539,2.488 -38.465,6.918 -58.109,7.195 -10.789,0.273 -30.16,-3.043 -35.141,-5.813 -2.492,-1.66 -5.258,3.047 -3.32,4.704" />
        <path
           inkscape:connector-curvature="0"
           id="path5346"
           style="fill:#2154ac;fill-opacity:1;fill-rule:evenodd;stroke:none"
           d="m 675.063,404.969 c 0,7.746 -1.383,12.172 -5.809,14.664 -1.387,0 -8.305,0.555 -11.625,0.555 -2.492,0 -4.149,-1.665 -4.149,-4.153 v -24.074 c 6.637,0 15.774,0 17.708,1.941 3.32,2.489 3.875,4.981 3.875,11.067 z m 5.812,-47.039 -19.926,30.711 h -7.469 v -21.028 c 0,-2.769 0.833,-4.425 1.657,-5.258 0.832,-1.105 3.324,-1.66 6.644,-1.66 v -2.765 h -28.5 v 2.765 c 0.551,0 2.215,0 3.321,0 0.554,0.555 1.382,0.555 2.488,1.66 0.832,0.833 1.387,3.598 1.387,6.918 v 42.614 c 0,3.32 -0.555,5.254 -1.387,6.918 -1.106,0.828 -2.488,1.66 -5.809,1.66 v 2.765 h 29.883 c 6.641,0 13.281,-0.832 17.434,-2.492 3.597,-2.488 8.297,-5.254 10.238,-11.621 0.273,-0.828 0,-2.488 0,-4.148 0,-2.492 -1.109,-4.703 -2.766,-7.473 -1.664,-3.32 -6.922,-7.191 -12.73,-8.023 l 17.984,-25.457 c 0.278,-0.555 3.875,-3.043 5.531,-3.043 v -3.043 z m -57.004,20.75 -4.148,-21.028 h -54.235 v 4.149 c 1.66,0 3.321,0 4.426,0 0.555,0 1.383,0.832 2.492,0.832 0.555,0.828 1.383,2.765 1.383,6.086 v 43.168 c 0,3.32 0,5.254 -0.828,6.918 -0.555,0.828 -3.047,1.933 -7.473,1.933 v 2.492 h 53.403 v -19.367 h -1.661 c -1.656,8.852 -4.425,12.172 -10.234,13.832 -2.492,0.828 -6.644,1.387 -10.519,1.387 -2.489,0 -4.7,0 -5.809,-0.559 -1.105,-0.828 -1.938,-0.828 -1.938,-3.316 v -20.754 c 5.258,0 6.09,0.277 8.579,1.938 2.492,1.66 3.875,6.64 4.707,11.898 h 2.488 v -32.375 h -2.488 c 0,1.66 -0.278,3.047 -0.278,4.703 -0.832,1.11 -0.554,3.324 -1.386,4.149 -1.661,2.492 -2.766,3.875 -4.426,3.875 -3.043,1.386 -4.703,0.832 -7.196,1.105 V 366.23 c 0,-1.66 1.11,-2.769 1.938,-3.597 1.66,-0.832 3.875,-0.832 6.367,-0.832 14.383,0.277 19.363,5.535 24.348,16.879 z m -69.726,-8.301 c -6.918,-11.066 -15.497,-13.559 -26.29,-13.559 -3.316,0 -5.257,0.555 -9.406,1.383 -3.32,0.832 -10.793,3.598 -14.109,7.195 -2.492,2.493 -4.707,5.258 -6.645,9.407 -5.257,11.07 -4.98,24.629 3.047,37.082 2.488,4.148 5.531,5.808 9.129,8.851 4.43,3.598 14.391,4.43 19.371,4.43 3.317,0 5.531,0 9.961,-1.105 2.211,0 10.238,-6.368 12.727,0.828 l 2.492,-0.278 0.277,-21.859 h -2.492 c -2.488,5.258 -3.043,9.406 -7.195,12.73 -2.489,1.934 -5.532,3.321 -7.746,4.149 -1.938,0.832 -5.258,0.555 -6.918,0.555 -4.981,0 -11.899,-3.321 -14.664,-8.028 -9.411,-15.769 -6.918,-30.988 -0.555,-42.609 1.66,-2.77 4.152,-4.707 6.641,-6.09 2.769,-1.66 4.98,-1.934 7.472,-1.934 2.488,0 4.149,0 6.641,0.828 1.656,0 4.426,1.106 5.808,2.77 4.43,1.656 7.75,5.254 9.133,7.746 z m -63.364,50.359 c -1.66,0 -4.98,-1.105 -5.812,-1.933 -1.66,-0.832 -1.938,-3.047 -3.321,-6.09 L 457.574,357.93 h -2.488 l -22.414,53.125 c -1.938,3.875 -2.492,6.918 -4.149,7.75 0,0 -0.832,0.828 -1.66,0.828 -0.832,1.105 -1.664,1.105 -3.32,1.105 v 2.492 h 27.668 v -2.492 h -0.277 c -0.832,0 -1.661,0 -1.661,0 -1.105,0 -3.593,-0.55 -4.152,-1.933 v -0.832 c 0,-0.832 0,-0.832 0,-0.832 0,-1.934 0.832,-2.489 0.832,-2.489 0,-1.109 0.551,-1.937 0.832,-2.765 l 13.836,-32.375 15.492,33.203 c 0.278,0.828 0.555,1.937 0.555,2.769 0,0.829 0,0.829 0,1.657 0,2.769 -1.66,3.597 -6.641,3.597 v 2.492 h 20.754 z m -90.484,-36.797 -8.578,19.922 -9.129,-19.922 z m 0,-25.738 v 2.77 c 2.492,0 3.047,0 3.875,0 1.66,0.828 2.488,1.937 2.488,3.597 0,0.828 0.832,1.66 0.281,3.043 l -4.707,11.067 h -21.582 l -4.703,-10.512 -1.109,-2.77 c 0,-2.488 3.598,-4.425 7.75,-4.425 v -3.043 h -20.199 v 3.043 c 1.656,0 3.597,1.105 4.98,2.765 2.488,2.492 0.832,0.555 4.149,7.75 l 23.796,52.575 h 2.489 l 21.586,-52.024 c 1.105,-3.043 3.043,-5.258 4.152,-8.023 1.105,-2.489 5.254,-1.938 5.254,-2.766 v -3.047 z m -42.055,48.426 h -2.769 c -0.828,5.258 -1.383,5.258 -3.598,8.301 -1.105,1.383 -3.043,2.488 -5.535,3.32 -3.043,0.555 -5.809,0.273 -9.129,0.273 v -50.355 c 0,-3.598 0.551,-3.875 2.488,-5.813 0.555,-0.828 3.043,-1.382 6.367,-1.382 l -0.277,-3.321 h -31.824 v 3.321 c 4.152,0 5.812,0 6.644,1.66 1.661,0.828 1.661,3.043 1.661,6.363 v 49.527 c -2.493,0 -5.536,0.282 -7.196,0 -3.875,-0.55 -5.812,-1.656 -7.472,-2.488 -2.489,-2.765 -3.043,-3.32 -3.872,-9.406 h -2.492 v 16.601 h 57.004 z m 403.981,0 h -2.766 c -0.832,5.258 -1.383,5.258 -3.598,8.301 -1.109,1.383 -3.043,2.488 -5.535,3.32 -3.043,0.555 -5.808,0.273 -9.133,0.273 v -50.355 c 0,-3.598 0.559,-3.875 2.493,-5.813 0.554,-0.828 3.046,-1.382 6.363,-1.382 l -0.277,-3.321 h -31.817 v 3.321 c 4.149,0 5.809,0 6.641,1.66 1.656,0.828 1.656,3.043 1.656,6.363 v 49.527 c -2.488,0 -5.531,0.282 -7.191,0 -3.875,-0.55 -5.813,-1.656 -7.473,-2.488 -2.488,-2.765 -3.043,-3.32 -3.875,-9.406 h -2.488 v 16.601 h 57 z m -471.778,-30.16 c 0,-2.492 -1.105,-5.258 -2.211,-8.028 -0.832,-2.488 -2.214,-4.148 -4.152,-6.086 -2.488,-1.66 -3.875,-3.32 -6.641,-4.152 -2.488,-0.828 -4.703,-1.383 -8.023,-1.383 -0.828,0 -1.66,0 -2.488,0 v 0 c -2.492,0 -3.321,0.278 -4.981,0.278 -1.664,0 -4.707,2.215 -6.09,3.047 -2.488,1.382 -4.148,0.828 -4.148,0.828 -1.66,0 -3.047,-3.321 -3.875,-4.153 h -2.492 v 22.692 h 2.492 c 0.828,-5.258 2.769,-7.196 5.258,-12.453 1.66,-1.661 4.98,-3.871 6.64,-4.704 2.493,-1.937 5.809,-1.937 9.129,-1.937 0.832,0 2.492,0 3.325,1.109 1.656,0 3.871,1.383 5.531,3.043 1.66,1.66 1.937,3.598 1.937,7.196 0,3.32 -2.215,6.914 -6.363,9.129 l -9.684,4.703 c -14.113,6.918 -16.05,11.343 -17.433,19.371 -0.555,3.32 0.832,6.086 1.66,8.574 1.66,2.77 3.32,5.539 4.98,7.195 4.153,2.766 8.301,4.43 13.559,4.43 1.383,0 2.215,0 3.871,0 0.832,-0.832 2.492,-1.105 4.43,-1.664 l 6.64,-1.934 c 1.383,0 3.321,0.828 3.321,2.493 h 2.492 v -21.032 h -2.492 c -0.832,4.426 -2.766,8.856 -6.086,12.176 -3.047,4.426 -7.196,6.086 -12.176,6.086 -3.32,0 -5.258,-0.555 -6.918,-2.488 -0.828,-0.832 -1.66,-1.664 -2.488,-2.492 0,-1.661 -0.832,-2.77 -0.832,-4.426 0,-1.66 0.832,-3.598 1.66,-5.258 1.66,-1.66 4.152,-3.875 6.086,-4.707 l 9.41,-4.149 c 3.875,-1.66 6.641,-3.32 9.129,-5.257 1.66,-0.828 1.383,-1.661 2.215,-2.489 0.551,-1.664 1.66,-2.492 3.043,-4.429 0.832,-2.489 2.765,-5.532 2.765,-9.129" />
        <path
           inkscape:connector-curvature="0"
           id="path5348"
           style="fill:#ffffff;fill-opacity:1;fill-rule:nonzero;stroke:none"
           d="m 161.785,681.918 c 4.106,-0.426 7.641,0.242 10.621,1.98 2.985,1.754 5.371,4.563 7.18,8.434 0.496,1.063 0.926,2.234 1.266,3.531 l 2.433,-1.133 c -0.867,-4.48 -2.035,-8.304 -3.504,-11.457 -2.304,-4.937 -5.574,-8.789 -9.804,-11.55 -4.219,-2.766 -9.137,-4.047 -14.727,-3.825 -4.422,-5.898 -10.086,-9.66 -16.965,-11.32 -6.879,-1.656 -13.797,-0.867 -20.754,2.379 -8.074,3.766 -13.519,9.617 -16.343,17.52 -2.8325,7.906 -2.2896,16.027 1.601,24.375 3.875,8.308 9.746,13.91 17.613,16.796 7.891,2.891 15.844,2.461 23.895,-1.293 7,-3.265 12.121,-8.218 15.328,-14.863 3.199,-6.625 3.934,-13.152 2.16,-19.574 z m -55.996,17.488 c -2.23,-4.785 -1.461,-9.633 2.285,-14.554 3.156,-4.122 8.578,-7.973 16.289,-11.571 9.231,-4.304 16.84,-5.867 22.821,-4.679 4.179,0.828 7.199,3.261 9.07,7.273 1.879,4.035 1.824,7.887 -0.184,11.566 -2.855,5.309 -8.672,10.004 -17.472,14.11 -8.66,4.035 -15.399,5.937 -20.227,5.707 -6.07,-0.278 -10.269,-2.895 -12.582,-7.852 z m 77.149,55.555 -20.344,37.301 15.261,18.847 1.274,-1.027 -1.219,-1.504 c -1.105,-1.367 -1.758,-2.652 -1.941,-3.851 -0.137,-0.836 0.031,-1.723 0.496,-2.68 0.348,-0.688 1.664,-1.969 3.965,-3.828 l 30.527,-24.723 c 2.367,-1.914 3.949,-2.988 4.742,-3.226 0.805,-0.223 1.731,-0.125 2.801,0.289 1.082,0.41 2.137,1.257 3.191,2.562 l 1.219,1.504 1.262,-1.02 -19.59,-24.187 -1.262,1.02 1.219,1.503 c 1.117,1.375 1.746,2.657 1.941,3.872 0.141,0.816 -0.031,1.726 -0.539,2.695 -0.336,0.68 -1.668,1.965 -4,3.855 l -34.32,27.789 27.871,-51.961 -0.672,-0.828 -56.543,15.93 32.618,-26.414 c 2.273,-1.84 3.73,-2.922 4.351,-3.231 1.363,-0.621 2.824,-0.726 4.34,-0.312 1.523,0.406 3.141,1.664 4.855,3.789 l 1.262,-1.02 -12.836,-15.859 -1.262,1.02 0.387,0.48 c 0.856,1.008 1.453,2.106 1.824,3.274 0.364,1.168 0.438,2.23 0.219,3.16 -0.222,0.933 -0.781,1.965 -1.633,3.078 -0.218,0.258 -1.355,1.211 -3.429,2.894 l -29.305,23.731 c -2.344,1.894 -3.906,2.949 -4.688,3.176 -0.789,0.218 -1.718,0.117 -2.781,-0.289 -1.078,-0.426 -2.14,-1.282 -3.187,-2.575 l -1.192,-1.472 -1.269,1.031 15.32,18.918 z m 31.593,92.988 13.907,-14.183 -1.333,-1.243 c -4.007,3.071 -8.265,4.579 -12.777,4.536 -4.5,-0.059 -8.156,-1.395 -10.988,-4.036 -2.18,-2.035 -3.371,-4.23 -3.551,-6.593 -0.199,-2.36 0.422,-4.301 1.848,-5.828 0.886,-0.954 1.926,-1.602 3.07,-1.934 1.559,-0.434 3.484,-0.5 5.766,-0.199 1.675,0.23 5.168,1.144 10.488,2.746 7.441,2.242 13.09,3.074 16.941,2.504 3.844,-0.578 7.09,-2.305 9.774,-5.18 3.398,-3.644 4.894,-8.109 4.512,-13.371 -0.395,-5.27 -2.778,-9.953 -7.145,-14.023 -1.375,-1.282 -2.809,-2.356 -4.285,-3.215 -1.481,-0.852 -3.508,-1.758 -6.067,-2.707 -1.433,-0.535 -2.468,-1.114 -3.132,-1.727 -0.559,-0.519 -0.954,-1.281 -1.172,-2.285 -0.223,-1.012 -0.117,-2.141 0.32,-3.379 l -1.184,-1.102 -15.343,16.458 1.179,1.105 c 5.262,-3.75 10.356,-5.586 15.325,-5.504 4.961,0.074 8.996,1.555 12.097,4.449 2.403,2.242 3.699,4.68 3.907,7.317 0.21,2.633 -0.5,4.824 -2.118,6.558 -0.961,1.028 -2.168,1.77 -3.617,2.227 -1.437,0.441 -3.117,0.598 -5.043,0.422 -1.93,-0.176 -4.949,-0.879 -9.078,-2.129 -5.781,-1.738 -10.18,-2.738 -13.191,-2.988 -3.02,-0.254 -5.782,0.043 -8.286,0.863 -2.511,0.824 -4.722,2.246 -6.625,4.285 -3.234,3.469 -4.71,7.625 -4.445,12.445 0.281,4.821 2.363,9.035 6.235,12.645 1.414,1.32 2.941,2.437 4.585,3.336 1.254,0.676 2.922,1.347 5.016,1.988 2.094,0.656 3.438,1.258 4.008,1.793 0.559,0.52 0.836,1.105 0.836,1.738 0.012,0.649 -0.457,1.746 -1.402,3.309 z m 87.297,58.528 10.008,-18.051 -1.496,-0.828 c -3.738,4.082 -7.836,6.531 -12.317,7.34 -4.457,0.8 -8.644,0.125 -12.543,-2.036 -3.253,-1.8 -5.714,-4.382 -7.39,-7.761 -1.676,-3.383 -2.317,-6.93 -1.883,-10.649 0.527,-4.765 2.102,-9.523 4.727,-14.254 2.582,-4.66 5.527,-8.582 8.832,-11.761 3.304,-3.176 6.746,-5.055 10.351,-5.618 3.598,-0.574 7.387,0.258 11.387,2.473 3.281,1.82 5.894,4.191 7.824,7.148 1.934,2.942 3.442,7 4.524,12.2 l 2.492,-4.5 c -1.239,-4.664 -3.051,-8.571 -5.457,-11.688 -2.414,-3.137 -5.719,-5.863 -9.957,-8.215 -5.551,-3.074 -11.11,-4.699 -16.664,-4.859 -5.555,-0.164 -10.661,1.187 -15.321,4.059 -4.66,2.89 -8.304,6.683 -10.914,11.394 -2.754,4.973 -4.066,10.399 -3.929,16.309 0.125,5.902 1.707,11.304 4.769,16.211 3.055,4.914 7.074,8.738 12.047,11.496 3.66,2.031 7.969,3.386 12.926,4.058 2.871,0.391 4.629,0.75 5.273,1.106 0.813,0.449 1.352,1.144 1.621,2.082 0.27,0.941 0.133,2.113 -0.402,3.519 z m 35.77,11.191 8.695,-22.645 1.105,0.426 c 3.528,1.356 5.657,3.438 6.399,6.266 0.734,2.82 0.484,6.484 -0.723,10.969 l 1.551,0.597 11.184,-29.129 -1.555,-0.597 c -1.555,3.05 -3.234,5.379 -5.063,7.004 -1.847,1.625 -3.586,2.515 -5.257,2.675 -1.649,0.153 -3.813,-0.273 -6.457,-1.293 l 6.011,-15.668 c 1.18,-3.066 2.02,-4.878 2.551,-5.464 0.512,-0.59 1.223,-0.961 2.098,-1.121 0.875,-0.18 2.101,0.05 3.699,0.664 l 3.32,1.273 c 5.196,1.992 8.891,4.793 11.102,8.406 2.219,3.602 3.051,8.129 2.531,13.586 l 1.512,0.582 4.301,-18.644 -48.09,-18.457 -0.582,1.511 1.847,0.707 c 1.61,0.622 2.801,1.414 3.559,2.364 0.57,0.648 0.863,1.519 0.883,2.605 0.058,0.758 -0.449,2.543 -1.524,5.34 l -14.047,36.594 c -0.964,2.523 -1.628,4.035 -1.988,4.554 -0.629,0.848 -1.433,1.395 -2.363,1.633 -1.344,0.367 -2.902,0.199 -4.707,-0.492 l -1.852,-0.711 -0.586,1.527 46.563,17.875 6.316,-16.453 -1.554,-0.597 c -2.34,3.711 -4.555,6.172 -6.668,7.367 -2.102,1.203 -4.625,1.715 -7.571,1.516 -1.718,-0.083 -4.683,-0.946 -8.898,-2.567 z m 71.398,-7.18 3.477,-16.343 c 0.668,-3.153 1.281,-5.094 1.836,-5.821 0.566,-0.734 1.386,-1.254 2.457,-1.531 1.086,-0.277 2.957,-0.137 5.629,0.434 l 0.335,-1.59 -29.843,-6.344 -0.34,1.59 c 2.703,0.57 4.469,1.203 5.328,1.926 0.848,0.703 1.387,1.488 1.613,2.382 0.207,0.887 -0.019,2.895 -0.691,6.047 l -8.039,37.828 c -0.668,3.153 -1.281,5.094 -1.836,5.836 -0.57,0.735 -1.387,1.239 -2.473,1.508 -1.074,0.297 -2.945,0.145 -5.613,-0.422 l -0.34,1.602 27.086,5.754 c 7.059,1.5 12.313,2.097 15.793,1.824 3.461,-0.277 6.516,-1.512 9.141,-3.703 2.609,-2.172 4.308,-5.031 5.054,-8.555 0.914,-4.297 0.114,-8.18 -2.379,-11.656 -1.609,-2.191 -4.082,-4.117 -7.445,-5.75 l 18.207,-16.758 c 2.375,-2.16 4.02,-3.469 4.914,-3.937 1.383,-0.641 2.832,-0.84 4.406,-0.598 l 0.336,-1.586 -18.355,-3.898 -24.426,22.578 z m -6.074,28.582 5.426,-25.527 2.453,0.52 c 3.976,0.847 6.879,1.832 8.703,2.984 1.828,1.156 3.101,2.808 3.824,4.953 0.723,2.148 0.77,4.75 0.117,7.816 -0.941,4.446 -2.679,7.497 -5.218,9.18 -2.52,1.688 -6.09,2.035 -10.711,1.051 z m 100.848,15.891 1.125,-16.102 -1.575,-0.113 c -1.203,3.664 -2.422,6.254 -3.672,7.789 -1.25,1.555 -2.91,2.731 -4.968,3.547 -1.141,0.461 -3.106,0.578 -5.875,0.387 l -4.43,-0.309 3.203,-45.851 c 0.215,-3.036 0.516,-4.926 0.895,-5.664 0.398,-0.743 1.101,-1.352 2.113,-1.852 1.031,-0.516 2.383,-0.703 4.074,-0.586 l 1.973,0.137 0.113,-1.617 -31.125,-2.176 -0.113,1.617 1.976,0.137 c 1.723,0.121 3.094,0.531 4.098,1.218 0.734,0.457 1.281,1.2 1.645,2.235 0.281,0.711 0.32,2.562 0.109,5.558 l -3.207,45.848 -4.309,-0.301 c -3.992,-0.281 -6.851,-1.324 -8.547,-3.156 -2.378,-2.543 -3.742,-6.035 -4.109,-10.465 l -1.66,-0.117 -1.125,16.102 z m 40.539,-60.492 -0.114,-1.621 -31.082,2.175 0.114,1.618 1.976,-0.137 c 1.719,-0.121 3.133,0.094 4.223,0.633 0.789,0.351 1.426,1.011 1.898,1.988 0.375,0.664 0.668,2.496 0.879,5.484 l 2.735,39.102 c 0.21,3.039 0.179,4.949 -0.094,5.738 -0.262,0.781 -0.86,1.485 -1.805,2.121 -0.937,0.641 -2.246,1.016 -3.906,1.133 l -1.977,0.137 0.114,1.633 31.078,-2.172 -0.114,-1.633 -1.972,0.137 c -1.723,0.121 -3.133,-0.082 -4.227,-0.621 -0.793,-0.364 -1.437,-1.012 -1.945,-1.985 -0.36,-0.679 -0.652,-2.508 -0.863,-5.488 l -2.731,-39.098 c -0.215,-3.039 -0.183,-4.949 0.094,-5.738 0.289,-0.785 0.902,-1.488 1.836,-2.129 0.945,-0.648 2.246,-1.027 3.902,-1.141 z m 36.144,48.992 -4.25,-24.109 1.699,-0.301 c 2.586,-0.453 4.782,-0.43 6.559,0.051 1.793,0.492 3.41,1.558 4.875,3.207 1.461,1.64 2.656,4.007 3.551,7.097 l 1.504,-0.269 -5.196,-29.469 -1.504,0.266 c 0.434,5.664 -0.414,9.593 -2.539,11.793 -2.125,2.203 -4.726,3.593 -7.812,4.136 l -1.699,0.297 -3.168,-17.961 c -0.528,-3 -0.684,-4.906 -0.493,-5.719 0.211,-0.812 0.743,-1.574 1.606,-2.308 0.859,-0.742 2.125,-1.254 3.766,-1.543 l 1.949,-0.344 -0.285,-1.597 -30.68,5.41 0.281,1.597 1.953,-0.343 c 1.696,-0.301 3.125,-0.235 4.266,0.191 0.824,0.262 1.519,0.855 2.098,1.777 0.445,0.621 0.91,2.414 1.429,5.368 l 6.805,38.597 c 0.531,3 0.715,4.903 0.523,5.715 -0.179,0.805 -0.714,1.57 -1.574,2.301 -0.875,0.734 -2.129,1.242 -3.765,1.531 l -1.95,0.344 0.282,1.613 49.504,-8.73 -2.969,-16.84 -1.774,0.312 c 0.297,4.032 -0.218,7.137 -1.539,9.332 -1.332,2.2 -3.488,3.953 -6.504,5.289 -1.652,0.735 -4.812,1.52 -9.484,2.348 z m 52.219,-68.777 -0.422,-1.563 -30.094,8.063 0.418,1.566 1.918,-0.516 c 1.664,-0.441 3.094,-0.5 4.266,-0.179 0.844,0.191 1.59,0.722 2.242,1.59 0.496,0.578 1.133,2.32 1.91,5.214 l 10.145,37.86 c 0.789,2.945 1.121,4.828 1.004,5.652 -0.106,0.817 -0.559,1.621 -1.368,2.43 -0.796,0.804 -2.011,1.426 -3.617,1.855 l -1.918,0.512 0.426,1.578 30.094,-8.058 -0.422,-1.583 -1.914,0.512 c -1.668,0.449 -3.09,0.516 -4.266,0.196 -0.847,-0.208 -1.605,-0.715 -2.285,-1.575 -0.488,-0.601 -1.125,-2.34 -1.898,-5.226 l -10.145,-37.86 c -0.789,-2.937 -1.117,-4.82 -0.996,-5.648 0.133,-0.828 0.602,-1.633 1.395,-2.438 0.8,-0.82 2.007,-1.437 3.613,-1.867 z m 51.074,16.32 8.473,-32.492 c 1.215,-4.578 2.527,-7.903 3.929,-9.973 1.047,-1.488 2.348,-2.59 3.926,-3.293 l -0.66,-1.48 -28.34,12.617 0.66,1.48 c 1.871,-0.633 3.145,-0.859 3.844,-0.691 0.711,0.156 1.192,0.535 1.453,1.125 0.5,1.125 0.215,3.797 -0.875,7.992 l -5.488,21.258 -2.77,-0.785 -6.613,-14.856 c -1.258,-2.836 -1.887,-4.676 -1.867,-5.519 0.008,-0.84 0.359,-1.707 1.047,-2.602 0.687,-0.914 2.031,-1.808 4.047,-2.703 l -0.66,-1.484 -27.461,12.23 0.66,1.481 1.808,-0.805 c 1.575,-0.703 2.981,-0.984 4.188,-0.848 0.863,0.055 1.687,0.465 2.465,1.219 0.582,0.492 1.468,2.117 2.687,4.855 l 15.942,35.809 c 1.238,2.785 1.879,4.582 1.89,5.418 0.02,0.824 -0.312,1.695 -0.972,2.613 -0.672,0.922 -1.762,1.723 -3.286,2.403 l -1.808,0.804 0.668,1.493 27.09,-12.063 -0.664,-1.492 c -1.836,0.816 -3.364,1.18 -4.563,1.078 -0.867,-0.074 -1.699,-0.457 -2.484,-1.16 -0.629,-0.524 -1.555,-2.168 -2.782,-4.922 l -7.542,-16.934 27.472,7.34 c 3.824,1.024 6.047,2.219 6.649,3.574 0.457,1.028 0.234,2.082 -0.653,3.184 -0.457,0.559 -1.843,1.395 -4.133,2.512 l 0.665,1.496 21.238,-9.457 -0.664,-1.496 c -1.969,0.711 -3.59,1.043 -4.918,0.972 -1.344,-0.054 -4.664,-0.808 -9.977,-2.222 z m 77.625,-18.496 c 7.988,-5.153 12.711,-11.848 14.203,-20.07 1.473,-8.227 -0.316,-15.965 -5.394,-23.215 -4.336,-6.192 -9.953,-10.371 -16.875,-12.539 -9.172,-2.879 -18.145,-1.25 -26.903,4.882 -8.773,6.145 -13.488,13.875 -14.117,23.204 -0.492,7.351 1.512,14.265 6.028,20.718 5.074,7.246 11.781,11.563 20.089,12.942 8.328,1.383 15.977,-0.586 22.969,-5.922 z m -1.168,-2.61 c -4.469,3.133 -9.461,3.223 -14.988,0.301 -4.508,-2.414 -9.223,-7.133 -14.125,-14.136 -5.832,-8.333 -8.684,-15.512 -8.543,-21.54 0.086,-4.214 1.976,-7.609 5.652,-10.183 2.465,-1.727 4.953,-2.57 7.446,-2.543 3.175,0.066 6.546,1.371 10.089,3.922 3.539,2.539 7.207,6.527 11,11.945 4.528,6.465 7.305,11.715 8.34,15.754 1.039,4.051 1.102,7.379 0.16,10.012 -0.929,2.613 -2.605,4.773 -5.031,6.468 z m 81.922,-72.132 -1.18,-1.137 c -1.746,1.312 -3.922,1.902 -6.511,1.758 -1.914,-0.137 -5.657,-1.211 -11.25,-3.231 l -47.016,-16.855 -0.996,1.039 19.875,47.613 c 2.398,5.738 3.672,9.258 3.812,10.539 0.137,1.305 -0.504,2.875 -1.925,4.715 l 1.175,1.133 19.84,-20.543 -1.176,-1.137 -0.668,0.692 c -1.792,1.855 -3.234,2.898 -4.359,3.128 -0.777,0.184 -1.473,-0.023 -2.09,-0.617 -0.375,-0.367 -0.746,-0.894 -1.105,-1.554 -0.34,-0.661 -1.184,-2.575 -2.512,-5.715 l -12.504,-29.739 27.168,9.868 c 3.277,1.207 5.426,2.07 6.422,2.593 1.008,0.516 1.781,1.051 2.332,1.582 0.625,0.602 1.031,1.313 1.18,2.125 0.164,0.801 0.051,1.653 -0.328,2.54 -0.504,1.257 -1.5,2.636 -2.938,4.125 l 1.176,1.136 z m -6.449,-62.434 -12.367,17.027 -6.172,-1.386 c -2.047,-0.473 -3.574,-1.078 -4.59,-1.817 -1.359,-0.992 -1.961,-2.258 -1.797,-3.812 0.07,-0.91 0.938,-2.692 2.57,-5.34 l -1.312,-0.953 -11.649,16.027 1.313,0.953 c 1.516,-1.531 3.273,-2.441 5.254,-2.687 1.976,-0.274 5.406,0.109 10.265,1.152 l 51,10.707 0.493,-0.68 -26.911,-46.105 c -2.543,-4.387 -3.906,-7.453 -4.105,-9.227 -0.145,-1.355 0.254,-2.8 1.199,-4.359 l -1.308,-0.953 -16.946,23.324 1.313,0.953 0.695,-0.957 c 1.359,-1.867 2.586,-2.996 3.652,-3.375 0.758,-0.246 1.497,-0.117 2.211,0.406 0.426,0.309 0.813,0.696 1.153,1.168 0.183,0.211 0.816,1.204 1.894,3.008 z m 1.754,3.125 11.39,19.234 -21.98,-4.66 z m 54.023,27.234 -20.883,2.817 -2.222,3.058 15.328,4.829 z m 9.973,-58.269 -21.074,-42.262 23.218,10.828 c 3.239,1.508 5.211,2.989 5.922,4.446 0.942,1.992 0.692,4.48 -0.762,7.457 l 1.481,0.691 8.316,-17.836 -1.48,-0.691 c -1.352,2.148 -2.442,3.496 -3.274,4.07 -0.828,0.574 -1.871,0.828 -3.125,0.773 -1.246,-0.05 -3.16,-0.675 -5.699,-1.863 l -44.972,-20.972 -0.637,1.359 27.945,57.488 -34.34,-16.012 c -3.097,-1.445 -4.863,-3.128 -5.285,-5.062 -0.441,-1.93 -0.222,-3.813 0.625,-5.633 l 0.598,-1.281 -1.469,-0.684 -8.934,19.153 1.473,0.687 c 1.41,-2.965 2.988,-4.746 4.731,-5.359 1.738,-0.61 4.039,-0.25 6.906,1.086 l 38.117,17.777 0.902,1.828 c 0.895,1.809 1.368,3.25 1.414,4.348 0.047,1.082 -0.3,2.461 -1.015,4.129 l 1.484,0.691 8.934,-19.156" />
        <path
           inkscape:connector-curvature="0"
           id="path5350"
           style="fill:#ffffff;fill-opacity:1;fill-rule:nonzero;stroke:none"
           d="m 193.484,296.43 -23.828,-13.762 -1.14,1.973 c 5.355,5.082 8.515,10.601 9.496,16.593 0.968,5.961 -0.028,11.528 -3,16.672 -2.481,4.297 -5.977,7.52 -10.528,9.676 -4.546,2.152 -9.285,2.926 -14.238,2.262 -6.34,-0.821 -12.641,-3.028 -18.894,-6.637 -6.149,-3.547 -11.309,-7.566 -15.469,-12.047 -4.156,-4.48 -6.582,-9.113 -7.242,-13.93 -0.692,-4.808 0.507,-9.843 3.558,-15.125 2.5,-4.332 5.723,-7.757 9.707,-10.261 3.969,-2.512 9.418,-4.426 16.367,-5.746 l -5.937,-3.43 c -6.25,1.543 -11.5,3.871 -15.707,7.008 -4.238,3.137 -7.949,7.484 -11.18,13.082 -4.23,7.324 -6.5271,14.707 -6.8748,22.105 -0.3437,7.399 1.3438,14.239 5.0628,20.516 3.742,6.273 8.711,11.223 14.933,14.812 6.559,3.789 13.774,5.664 21.649,5.618 7.871,-0.028 15.113,-2.012 21.722,-5.981 6.625,-3.957 11.817,-9.226 15.606,-15.793 2.789,-4.832 4.703,-10.543 5.715,-17.137 0.59,-3.816 1.105,-6.152 1.593,-7 0.622,-1.074 1.559,-1.781 2.817,-2.117 1.254,-0.34 2.82,-0.125 4.676,0.621 z m -16.629,35.406 13.473,21.426 2.219,-3.844 -3.465,-18.164 17.332,-6.578 2.402,-4.16 -25.339,-0.145 z m 53.75,-79.895 -19.55,-17.871 -1.586,1.828 c 4.277,5.2 6.48,10.801 6.633,16.821 0.136,6 -1.477,10.929 -4.86,14.828 -2.613,3 -5.484,4.691 -8.625,5.035 -3.133,0.379 -5.746,-0.363 -7.847,-2.187 -1.313,-1.141 -2.227,-2.493 -2.719,-4.004 -0.656,-2.051 -0.832,-4.618 -0.535,-7.676 0.222,-2.242 1.285,-6.934 3.164,-14.098 2.648,-10.023 3.496,-17.582 2.554,-22.691 -0.953,-5.09 -3.402,-9.348 -7.359,-12.785 -5.012,-4.352 -11.031,-6.145 -18.023,-5.387 -7.008,0.773 -13.133,4.164 -18.356,10.172 -1.641,1.887 -3.008,3.855 -4.086,5.855 -1.062,2.016 -2.18,4.762 -3.324,8.215 -0.645,1.93 -1.371,3.344 -2.156,4.246 -0.668,0.774 -1.664,1.34 -2.989,1.672 -1.336,0.348 -2.847,0.254 -4.511,-0.266 l -1.418,1.633 22.64,19.68 1.418,-1.629 c -5.242,-6.836 -7.922,-13.539 -8.043,-20.164 -0.136,-6.609 1.653,-12.055 5.364,-16.324 2.875,-3.305 6.062,-5.149 9.566,-5.547 3.5,-0.402 6.449,0.441 8.836,2.512 1.418,1.234 2.465,2.808 3.137,4.718 0.656,1.895 0.941,4.129 0.797,6.707 -0.145,2.575 -0.942,6.629 -2.411,12.188 -2.05,7.785 -3.179,13.691 -3.367,17.719 -0.203,4.039 0.324,7.699 1.531,11.004 1.211,3.304 3.215,6.187 6.02,8.625 4.77,4.144 10.383,5.921 16.793,5.343 6.41,-0.601 11.926,-3.566 16.559,-8.894 1.691,-1.949 3.109,-4.031 4.226,-6.262 0.844,-1.707 1.664,-3.961 2.418,-6.777 0.781,-2.821 1.516,-4.641 2.199,-5.426 0.672,-0.774 1.434,-1.168 2.285,-1.199 0.864,-0.043 2.348,0.535 4.473,1.715 z m 22.93,-26.554 0.551,-62.969 21.027,26.922 c 2.934,3.75 4.379,6.707 4.34,8.863 -0.09,2.942 -1.887,5.742 -5.418,8.399 l 1.344,1.718 20.676,-16.156 -1.344,-1.719 c -2.91,1.739 -5.016,2.676 -6.348,2.856 -1.332,0.176 -2.73,-0.149 -4.187,-0.969 -1.449,-0.824 -3.34,-2.723 -5.641,-5.668 l -40.734,-52.133 -1.574,1.231 -1.598,85.207 -31.106,-39.813 c -2.808,-3.59 -3.882,-6.656 -3.214,-9.211 0.644,-2.558 2.039,-4.668 4.152,-6.316 l 1.484,-1.156 -1.336,-1.703 -22.203,17.351 1.332,1.699 c 3.473,-2.664 6.426,-3.824 8.864,-3.5 2.437,0.328 4.953,2.149 7.546,5.473 l 34.528,44.191 -0.031,2.719 c -0.036,2.688 -0.348,4.688 -0.957,6.024 -0.602,1.308 -1.848,2.738 -3.704,4.289 l 1.344,1.718 z m 95,-65.914 -13.152,-29.547 1.437,-0.641 c 4.61,-2.047 8.575,-2.09 11.946,-0.125 3.347,1.965 6.566,5.656 9.66,11.024 l 2.027,-0.907 -16.922,-38 -2.027,0.903 c 1.406,4.34 2.016,8.121 1.828,11.383 -0.211,3.265 -1.012,5.746 -2.43,7.472 -1.414,1.699 -3.859,3.336 -7.312,4.875 l -9.102,-20.445 c -1.781,-4 -2.699,-6.508 -2.754,-7.5548 -0.066,-1.0391 0.25,-2.0547 0.926,-3.0391 0.656,-0.9922 2.031,-1.9336 4.113,-2.8594 l 4.332,-1.9297 c 6.778,-3.0195 12.903,-3.8632 18.395,-2.539 5.484,1.3008 10.539,4.7851 15.191,10.4218 l 1.973,-0.8789 -13.527,-21.6289 -62.739,27.934 0.879,1.972 2.411,-1.074 c 2.101,-0.934 3.972,-1.309 5.582,-1.125 1.152,0.078 2.246,0.617 3.289,1.621 0.773,0.66 1.976,2.82 3.605,6.477 L 327.418,159 c 1.465,3.289 2.266,5.344 2.418,6.172 0.207,1.394 -0.039,2.664 -0.688,3.766 -0.921,1.613 -2.55,2.929 -4.906,3.976 l -2.414,1.074 0.891,1.992 60.746,-27.046 -9.559,-21.469 -2.023,0.902 c 1.289,5.707 1.523,10.113 0.66,13.235 -0.848,3.117 -2.75,5.976 -5.711,8.566 -1.699,1.543 -5.309,3.523 -10.809,5.973 z m 68.879,-19.594 28.098,-56.3517 7.101,33.4107 c 0.992,4.656 0.992,7.949 0.012,9.871 -1.367,2.605 -4.211,4.336 -8.551,5.171 l 0.453,2.137 25.668,-5.457 -0.453,-2.133 c -3.375,0.289 -5.683,0.203 -6.961,-0.218 -1.273,-0.426 -2.386,-1.332 -3.336,-2.707 -0.941,-1.375 -1.812,-3.907 -2.586,-7.563 l -13.754,-64.7187 -1.96,0.418 -38.79,75.8827 -10.503,-49.4179 c -0.946,-4.457 -0.571,-7.6875 1.148,-9.6875 1.699,-2.0195 3.879,-3.3008 6.504,-3.8554 l 1.836,-0.3907 -0.445,-2.1172 -27.567,5.8594 0.449,2.1172 c 4.293,-0.875 7.453,-0.625 9.5,0.7344 2.051,1.3672 3.512,4.1055 4.387,8.2305 l 11.66,54.8552 -1.219,2.426 c -1.207,2.406 -2.367,4.063 -3.5,4.996 -1.113,0.91 -2.859,1.652 -5.21,2.234 l 0.457,2.133 z M 545.5,52.0938 l 0.039,-2.1563 -41.531,-0.7266 -0.039,2.1602 2.636,0.043 c 2.301,0.0429 4.157,0.4961 5.54,1.3359 1.007,0.5586 1.773,1.5156 2.289,2.8594 0.425,0.9297 0.601,3.3945 0.535,7.3945 l -0.914,52.2501 c -0.071,4.059 -0.336,6.594 -0.793,7.609 -0.438,1.012 -1.317,1.875 -2.645,2.614 -1.316,0.738 -3.101,1.086 -5.32,1.046 l -2.641,-0.046 -0.035,2.183 41.531,0.723 0.039,-2.184 -2.64,-0.043 c -2.301,-0.043 -4.153,-0.472 -5.539,-1.316 -1.012,-0.574 -1.793,-1.512 -2.348,-2.863 -0.406,-0.946 -0.582,-3.407 -0.512,-7.387 l 0.914,-52.2502 c 0.071,-4.0625 0.332,-6.6015 0.789,-7.6093 0.481,-1.0117 1.372,-1.8789 2.688,-2.6172 1.332,-0.7539 3.098,-1.1055 5.316,-1.0664 z m 54.297,89.2852 5.246,-25.961 -2.379,-0.422 c -2.258,6.344 -5.922,11.121 -11,14.352 -5.074,3.207 -10.133,4.363 -15.215,3.468 -3.922,-0.691 -6.847,-2.285 -8.761,-4.793 -1.934,-2.492 -2.649,-5.117 -2.168,-7.855 0.304,-1.715 0.992,-3.199 2.035,-4.395 1.422,-1.617 3.527,-3.093 6.3,-4.414 2.04,-0.961 6.61,-2.468 13.715,-4.546 9.957,-2.895 16.875,-6.063 20.77,-9.5005 3.875,-3.4375 6.254,-7.7266 7.164,-12.8906 1.156,-6.5352 -0.414,-12.6211 -4.664,-18.2227 -4.27,-5.6094 -10.332,-9.1133 -18.176,-10.4961 -2.457,-0.4336 -4.848,-0.5898 -7.121,-0.4843 -2.277,0.121 -5.203,0.5859 -8.754,1.3789 -1.988,0.4414 -3.57,0.5507 -4.75,0.3398 -1.004,-0.1758 -2.004,-0.7383 -2.973,-1.6992 -0.984,-0.9688 -1.683,-2.3125 -2.093,-4.0078 l -2.129,-0.375 -5.211,29.5429 2.129,0.375 c 3.16,-8.0117 7.523,-13.7617 13.14,-17.2773 5.598,-3.5234 11.18,-4.793 16.758,-3.8086 4.313,0.7578 7.531,2.5469 9.68,5.3398 2.144,2.7969 2.945,5.7618 2.394,8.8711 -0.324,1.8516 -1.136,3.5547 -2.425,5.1172 -1.286,1.5391 -3.055,2.9336 -5.336,4.1367 -2.285,1.2032 -6.168,2.6094 -11.692,4.211 -7.73,2.2539 -13.375,4.3281 -16.922,6.2422 -3.562,1.9062 -6.437,4.2422 -8.644,6.9845 -2.207,2.734 -3.645,5.933 -4.293,9.598 -1.094,6.222 0.269,11.949 4.066,17.144 3.821,5.184 9.203,8.387 16.157,9.613 2.543,0.45 5.054,0.586 7.543,0.399 1.898,-0.156 4.253,-0.614 7.058,-1.418 2.817,-0.781 4.758,-1.094 5.781,-0.91 1.008,0.175 1.739,0.632 2.203,1.343 0.485,0.715 0.754,2.286 0.836,4.715 z m 49.359,15.203 c 11.649,4.984 22.571,5.215 32.778,0.734 10.187,-4.507 17.406,-12.253 21.636,-23.273 3.61,-9.41 4.039,-18.734 1.282,-28 C 701.188,93.7578 692.699,85.0586 679.391,79.9453 666.059,74.8281 654,75.3828 643.223,81.6367 c -8.496,4.9453 -14.645,12.3086 -18.41,22.1133 -4.227,11.016 -4,21.641 0.671,31.855 4.68,10.239 12.559,17.227 23.672,20.977 z m 2.016,-3.23 c -6.801,-2.614 -10.617,-8.063 -11.504,-16.352 -0.699,-6.781 1.004,-15.508 5.09,-26.152 4.859,-12.6605 10.672,-21.1605 17.437,-25.5042 4.727,-3.0508 9.887,-3.4883 15.469,-1.3477 3.75,1.4414 6.539,3.5625 8.363,6.3398 2.297,3.5586 3.364,8.2539 3.188,14.0781 -0.172,5.805 -1.844,12.832 -5.004,21.066 -3.77,9.817 -7.5,16.805 -11.195,20.958 -3.7,4.171 -7.332,6.718 -10.946,7.644 -3.586,0.918 -7.222,0.68 -10.898,-0.73 z m 112.023,-29.008 -0.941,1.344 c 4.461,4.929 7.703,9.886 9.738,14.828 2.039,4.968 2.926,9.933 2.633,14.929 -0.281,5.004 -1.566,10.082 -3.906,15.235 -1.258,-2.422 -2.453,-4.305 -3.563,-5.692 -1.113,-1.367 -2.437,-2.586 -3.976,-3.66 -4.93,-3.457 -10.262,-4.555 -16.032,-3.293 -5.781,1.246 -10.812,4.949 -15.136,11.125 -3.008,4.297 -4.86,8.856 -5.59,13.668 -0.719,4.797 -0.121,9.34 1.785,13.629 1.918,4.27 4.652,7.648 8.207,10.141 3.816,2.675 8.172,4.086 13.09,4.285 4.902,0.211 9.84,-1.047 14.742,-3.766 4.906,-2.719 9.203,-6.719 12.895,-11.992 4.793,-6.852 7.746,-14.547 8.863,-23.121 1.117,-8.57 -0.262,-17.027 -4.09,-25.371 -3.851,-8.34 -10.086,-15.754 -18.719,-22.289 z m 5.426,50.871 c -2.176,3.801 -4.226,7.078 -6.129,9.797 -4.074,5.816 -8.543,10.769 -13.426,14.847 -2.699,2.254 -5.281,3.5 -7.707,3.754 -1.281,0.157 -2.566,-0.234 -3.847,-1.129 -1.606,-1.125 -2.367,-2.683 -2.301,-4.66 0.066,-2.789 1.961,-6.812 5.687,-12.136 6.204,-8.864 11.547,-14.227 16.016,-16.106 2.899,-1.215 5.512,-1 7.836,0.629 1.262,0.879 2.543,2.539 3.871,5.004 z m 58.551,56.738 c 5.695,-5.5 10.254,-11.43 13.648,-17.824 2.121,-3.879 3.371,-7.566 3.743,-11.066 0.375,-3.473 0.136,-6.801 -0.704,-9.942 -0.847,-3.152 -2.425,-5.941 -4.761,-8.359 -2.653,-2.746 -5.758,-4.551 -9.297,-5.422 -3.559,-0.867 -7.465,-0.879 -11.735,-0.086 -3.109,0.605 -6.699,1.988 -10.765,4.133 -5.473,2.949 -10.488,6.625 -15.063,11.043 -6.211,6 -11.09,12.379 -14.601,19.136 -2.914,5.594 -4.114,10.946 -3.567,16.09 0.535,5.129 2.371,9.332 5.512,12.586 3.211,3.321 7.332,5.321 12.371,6.016 5.035,0.691 10.129,-0.137 15.246,-2.465 7.086,-3.199 13.731,-7.809 19.973,-13.84 z m -12.617,-12.89 c -10.012,9.667 -15.895,15.238 -17.66,16.722 -4.165,3.492 -7.461,5.367 -9.875,5.641 -1.571,0.156 -3.129,-0.535 -4.657,-2.117 -1.168,-1.211 -1.742,-2.496 -1.742,-3.852 -0.023,-1.98 1.035,-4.367 3.176,-7.133 2.117,-2.761 10.621,-11.312 25.5,-25.679 8.086,-7.809 13.773,-12.77 17.078,-14.875 2.387,-1.5 4.309,-2.192 5.75,-2.051 1.438,0.136 2.773,0.855 4.023,2.148 1.36,1.41 1.926,2.891 1.7,4.473 -0.426,2.691 -2.203,5.719 -5.332,9.047 z m 51.414,65.23 c 6.406,-4.652 11.746,-9.895 15.996,-15.75 2.637,-3.547 4.39,-7.023 5.246,-10.438 0.852,-3.386 1.082,-6.714 0.687,-9.941 -0.402,-3.242 -1.578,-6.223 -3.55,-8.937 -2.246,-3.094 -5.075,-5.317 -8.457,-6.664 -3.403,-1.36 -7.27,-1.911 -11.606,-1.727 -3.164,0.172 -6.91,1.039 -11.238,2.602 -5.828,2.152 -11.305,5.097 -16.449,8.835 -6.989,5.079 -12.711,10.715 -17.125,16.918 -3.66,5.133 -5.594,10.27 -5.77,15.438 -0.183,5.156 1.047,9.574 3.703,13.226 2.719,3.739 6.524,6.293 11.414,7.68 4.891,1.391 10.051,1.278 15.442,-0.316 7.465,-2.184 14.683,-5.824 21.707,-10.926 z M 855.266,269.77 c -11.262,8.183 -17.86,12.878 -19.817,14.101 -4.605,2.879 -8.133,4.281 -10.562,4.211 -1.578,-0.062 -3.024,-0.961 -4.317,-2.742 -0.988,-1.36 -1.375,-2.711 -1.191,-4.059 0.258,-1.961 1.637,-4.179 4.141,-6.617 2.48,-2.441 12.093,-9.726 28.824,-21.879 9.094,-6.609 15.418,-10.734 18.98,-12.355 2.574,-1.157 4.574,-1.571 5.985,-1.231 1.402,0.336 2.625,1.231 3.683,2.688 1.153,1.586 1.504,3.129 1.063,4.668 -0.801,2.601 -2.981,5.351 -6.543,8.211 z m -2.004,76.375 57.371,-30.504 c 4.308,-2.293 7.168,-3.563 8.566,-3.828 1.391,-0.247 2.785,0.035 4.184,0.835 1.394,0.793 2.816,2.532 4.226,5.18 l 0.856,1.606 1.902,-1.016 -19.64,-36.941 -1.907,1.015 0.996,1.871 c 1.594,3.004 2.379,5.328 2.364,6.965 -0.008,1.637 -0.504,3.012 -1.469,4.09 -0.957,1.094 -3.664,2.832 -8.078,5.176 l -36.36,19.332 c -3.246,1.726 -5.363,2.652 -6.324,2.754 -0.972,0.133 -1.972,-0.086 -3.008,-0.621 -1.011,-0.547 -1.812,-1.368 -2.394,-2.465 -0.938,-1.766 -1.531,-4.192 -1.758,-7.309 l -2.359,0.078 1.922,32.071 0.91,1.711" />
      </g>
    </g>
  </g>
</svg>
