<?xml version="1.0" encoding="UTF-8" standalone="no"?>
<!-- Created with Inkscape (http://www.inkscape.org/) -->

<svg
   xmlns:dc="http://purl.org/dc/elements/1.1/"
   xmlns:cc="http://creativecommons.org/ns#"
   xmlns:rdf="http://www.w3.org/1999/02/22-rdf-syntax-ns#"
   xmlns:svg="http://www.w3.org/2000/svg"
   xmlns="http://www.w3.org/2000/svg"
   xmlns:sodipodi="http://sodipodi.sourceforge.net/DTD/sodipodi-0.dtd"
   xmlns:inkscape="http://www.inkscape.org/namespaces/inkscape"
   width="37.423988mm"
   height="37.12664mm"
   viewBox="0 0 37.423988 37.12664"
   version="1.1"
   id="svg8"
   inkscape:version="0.92.2 (5c3e80d, 2017-08-06)">
  <defs
     id="defs2" />
  <sodipodi:namedview
     id="base"
     pagecolor="#ffffff"
     bordercolor="#666666"
     borderopacity="1.0"
     inkscape:pageopacity="0.0"
     inkscape:pageshadow="2"
     inkscape:zoom="7.9195959"
     inkscape:cx="80.955685"
     inkscape:cy="72.504854"
     inkscape:document-units="mm"
     inkscape:current-layer="layer1"
     showgrid="false"
     fit-margin-top="1"
     fit-margin-left="1"
     fit-margin-right="1"
     fit-margin-bottom="1"
     showguides="true"
     inkscape:guide-bbox="true"
     inkscape:window-width="2560"
     inkscape:window-height="1377"
     inkscape:window-x="1912"
     inkscape:window-y="-8"
     inkscape:window-maximized="1">
    <sodipodi:guide
       position="0.70158252,22.884952"
       orientation="1,0"
       id="guide4617"
       inkscape:locked="false" />
    <sodipodi:guide
       position="20.145441,36.44888"
       orientation="0,1"
       id="guide4619"
       inkscape:locked="false" />
    <sodipodi:guide
       position="36.582517,16.604118"
       orientation="1,0"
       id="guide4621"
       inkscape:locked="false" />
    <sodipodi:guide
       position="17.439337,0.70158247"
       orientation="0,1"
       id="guide4623"
       inkscape:locked="false" />
  </sodipodi:namedview>
  <metadata
     id="metadata5">
    <rdf:RDF>
      <cc:Work
         rdf:about="">
        <dc:format>image/svg+xml</dc:format>
        <dc:type
           rdf:resource="http://purl.org/dc/dcmitype/StillImage" />
        <dc:title></dc:title>
      </cc:Work>
    </rdf:RDF>
  </metadata>
  <g
     inkscape:label="Vrstva 1"
     inkscape:groupmode="layer"
     id="layer1"
     transform="translate(38.744732,-130.27001)">
    <ellipse
       style="fill:#ffffff;fill-opacity:1;stroke:none;stroke-width:0.26499999;stroke-linecap:round;stroke-linejoin:round;stroke-miterlimit:4;stroke-dasharray:0.13249999, 0.13249999000000001;stroke-dashoffset:0;stroke-opacity:1"
       id="path4625"
       cx="-20.102682"
       cy="148.78801"
       rx="17.773424"
       ry="17.673197" />
    <g
       transform="matrix(0.35277777,0,0,-0.35277777,-37.916022,166.71677)"
       inkscape:label="ink_ext_XXXXXX"
       id="g4512">
      <g
         transform="scale(0.1)"
         id="g4514">
        <path
           inkscape:connector-curvature="0"
           id="path4516"
           style="fill:#339155;fill-opacity:1;fill-rule:evenodd;stroke:none"
           d="m 504.953,1004.79 c 274.91,0 497.857,-222.95 497.857,-497.856 C 1002.81,232.02 779.863,9.07422 504.953,9.07422 230.039,9.07422 7.09766,232.02 7.09766,506.934 7.09766,781.84 230.039,1004.79 504.953,1004.79 Z m 0,-162.493 c 185.184,0 335.363,-150.184 335.363,-335.363 0,-185.188 -150.179,-335.368 -335.363,-335.368 -185.183,0 -335.367,150.18 -335.367,335.368 0,185.179 150.184,335.363 335.367,335.363" />
        <path
           inkscape:connector-curvature="0"
           id="path4518"
           style="fill:#ffffff;fill-opacity:1;fill-rule:nonzero;stroke:none"
           d="m 104.535,693.805 21.973,-10.242 0.512,1.078 c 1.589,3.422 1.675,6.406 0.238,8.957 -1.426,2.535 -4.141,4.996 -8.145,7.379 l 0.707,1.515 28.274,-13.183 -0.707,-1.52 c -3.223,1.113 -6.059,1.625 -8.504,1.52 -2.426,-0.106 -4.305,-0.676 -5.621,-1.715 -1.309,-1.047 -2.551,-2.848 -3.754,-5.426 l 15.211,-7.098 c 2.969,-1.379 4.844,-2.097 5.625,-2.16 0.781,-0.062 1.547,0.168 2.293,0.649 0.754,0.492 1.472,1.511 2.191,3.062 l 1.52,3.223 c 2.336,5.039 3.058,9.629 2.14,13.754 -0.914,4.125 -3.465,7.965 -7.617,11.531 l 0.688,1.473 16.035,-10.438 -21.766,-46.668 -1.469,0.692 0.829,1.785 c 0.734,1.574 1.046,2.953 0.925,4.168 -0.047,0.871 -0.433,1.695 -1.168,2.492 -0.496,0.586 -2.101,1.515 -4.816,2.773 l -35.52,16.563 c -2.449,1.14 -3.976,1.769 -4.589,1.906 -1.0512,0.164 -1.9927,0.012 -2.8364,-0.469 -1.2109,-0.676 -2.2344,-1.875 -3.043,-3.629 l -0.8398,-1.785 -1.4727,0.688 21.0779,45.195 15.973,-7.453 -0.719,-1.516 c -4.262,1.051 -7.562,1.278 -9.918,0.676 -2.34,-0.598 -4.512,-1.98 -6.492,-4.168 -1.172,-1.262 -2.719,-3.934 -4.621,-8.027 l -2.594,-5.582" />
        <path
           inkscape:connector-curvature="0"
           id="path4520"
           style="fill:#ffffff;fill-opacity:1;fill-rule:nonzero;stroke:none"
           d="m 178.785,749.383 -22.273,36.168 14.25,19.617 1.32,-0.945 -1.144,-1.575 c -1.036,-1.414 -1.602,-2.73 -1.739,-3.945 -0.09,-0.84 0.121,-1.707 0.645,-2.64 0.379,-0.676 1.773,-1.875 4.156,-3.614 l 31.785,-23.086 c 2.461,-1.8 4.098,-2.789 4.903,-2.968 0.796,-0.2 1.726,-0.047 2.777,0.421 1.051,0.477 2.058,1.375 3.043,2.727 l 1.14,1.574 1.305,-0.957 -18.285,-25.172 -1.305,0.957 1.125,1.563 c 1.035,1.426 1.621,2.746 1.742,3.961 0.086,0.824 -0.121,1.707 -0.675,2.656 -0.375,0.676 -1.77,1.891 -4.2,3.645 l -35.718,25.949 30.543,-50.418 -0.614,-0.852 -57.289,12.946 33.95,-24.676 c 2.367,-1.711 3.867,-2.715 4.496,-2.985 1.414,-0.558 2.851,-0.586 4.351,-0.101 1.5,0.492 3.047,1.824 4.649,4.027 l 1.304,-0.941 -11.968,-16.5 -1.321,0.961 0.36,0.492 c 0.797,1.051 1.351,2.176 1.652,3.359 0.313,1.188 0.328,2.254 0.063,3.164 -0.29,0.93 -0.875,1.926 -1.805,2.989 -0.223,0.238 -1.422,1.14 -3.567,2.714 l -30.496,22.157 c -2.445,1.765 -4.066,2.746 -4.863,2.925 -0.793,0.18 -1.707,0.028 -2.758,-0.437 -1.051,-0.465 -2.066,-1.379 -3.043,-2.73 l -1.113,-1.532 -1.32,0.965 14.312,19.676 41.625,-9.539" />
        <path
           inkscape:connector-curvature="0"
           id="path4522"
           style="fill:#ffffff;fill-opacity:1;fill-rule:nonzero;stroke:none"
           d="m 210.988,844.563 13.907,-14.208 -1.321,-1.218 c -4.019,3.062 -8.281,4.562 -12.781,4.515 -4.496,-0.058 -8.156,-1.394 -10.98,-4.031 -2.188,-2.043 -3.375,-4.234 -3.571,-6.586 -0.176,-2.355 0.438,-4.305 1.86,-5.82 0.902,-0.965 1.921,-1.606 3.062,-1.938 1.559,-0.433 3.496,-0.496 5.777,-0.207 1.68,0.239 5.161,1.153 10.485,2.743 7.437,2.25 13.078,3.089 16.933,2.519 3.84,-0.602 7.094,-2.324 9.766,-5.187 3.402,-3.649 4.906,-8.102 4.516,-13.368 -0.407,-5.277 -2.778,-9.945 -7.157,-14.023 -1.363,-1.274 -2.789,-2.359 -4.273,-3.211 -1.473,-0.855 -3.496,-1.754 -6.063,-2.711 -1.425,-0.527 -2.472,-1.098 -3.136,-1.715 -0.555,-0.523 -0.942,-1.289 -1.168,-2.297 -0.227,-1 -0.121,-2.129 0.316,-3.371 l -1.183,-1.113 -15.348,16.461 1.199,1.105 c 5.25,-3.75 10.352,-5.578 15.317,-5.504 4.949,0.075 8.984,1.559 12.089,4.454 2.399,2.238 3.704,4.679 3.899,7.304 0.211,2.645 -0.496,4.832 -2.113,6.555 -0.957,1.039 -2.161,1.773 -3.602,2.223 -1.438,0.464 -3.133,0.597 -5.055,0.437 -1.918,-0.183 -4.949,-0.887 -9.074,-2.133 -5.773,-1.742 -10.172,-2.742 -13.187,-2.984 -3.012,-0.254 -5.774,0.043 -8.289,0.871 -2.508,0.805 -4.715,2.25 -6.606,4.273 -3.238,3.481 -4.723,7.622 -4.453,12.434 0.269,4.832 2.355,9.047 6.223,12.664 1.414,1.317 2.945,2.414 4.593,3.313 1.243,0.691 2.926,1.351 5.008,2.011 2.102,0.645 3.438,1.243 4.02,1.782 0.554,0.511 0.843,1.093 0.843,1.746 0,0.64 -0.468,1.734 -1.414,3.308 l 0.961,0.907" />
        <path
           inkscape:connector-curvature="0"
           id="path4524"
           style="fill:#ffffff;fill-opacity:1;fill-rule:nonzero;stroke:none"
           d="m 293.941,903.27 10.934,-17.52 -1.457,-0.902 c -3.941,3.886 -8.172,6.121 -12.672,6.691 -4.504,0.57 -8.637,-0.332 -12.406,-2.684 -3.164,-1.968 -5.488,-4.679 -6.988,-8.148 -1.5,-3.449 -1.938,-7.031 -1.321,-10.723 0.766,-4.726 2.594,-9.39 5.473,-13.98 2.824,-4.531 5.957,-8.281 9.422,-11.281 3.465,-3 7.004,-4.696 10.637,-5.071 3.613,-0.375 7.363,0.645 11.23,3.059 3.184,2 5.676,4.504 7.441,7.547 1.77,3.047 3.063,7.183 3.871,12.418 l 2.731,-4.36 c -0.988,-4.726 -2.594,-8.703 -4.844,-11.957 -2.234,-3.242 -5.402,-6.152 -9.496,-8.699 -5.387,-3.375 -10.863,-5.281 -16.394,-5.746 -5.536,-0.453 -10.696,0.645 -15.497,3.27 -4.816,2.625 -8.64,6.226 -11.488,10.8 -3.015,4.813 -4.609,10.172 -4.785,16.063 -0.18,5.898 1.125,11.387 3.914,16.441 2.793,5.071 6.602,9.106 11.414,12.121 3.555,2.207 7.785,3.778 12.707,4.707 2.832,0.539 4.574,1.008 5.188,1.383 0.793,0.508 1.304,1.231 1.527,2.172 0.215,0.945 0.02,2.117 -0.598,3.484 l 1.457,0.915" />
        <path
           inkscape:connector-curvature="0"
           id="path4526"
           style="fill:#ffffff;fill-opacity:1;fill-rule:nonzero;stroke:none"
           d="m 333.152,916.063 8.7,-22.653 1.097,0.438 c 3.535,1.347 5.664,3.433 6.403,6.254 0.734,2.832 0.492,6.48 -0.739,10.964 l 1.563,0.598 11.176,-29.109 -1.559,-0.602 c -1.547,3.043 -3.227,5.383 -5.059,7.004 -1.832,1.617 -3.586,2.508 -5.234,2.672 -1.664,0.164 -3.824,-0.27 -6.48,-1.293 l 6.015,-15.656 c 1.184,-3.063 2.024,-4.895 2.551,-5.481 0.523,-0.57 1.215,-0.945 2.098,-1.109 0.886,-0.164 2.117,0.047 3.691,0.66 l 3.328,1.277 c 5.192,1.996 8.899,4.801 11.102,8.399 2.207,3.613 3.047,8.133 2.535,13.574 l 1.515,0.59 4.274,-18.629 -48.059,-18.453 -0.582,1.515 1.84,0.704 c 1.625,0.628 2.809,1.414 3.574,2.371 0.571,0.644 0.852,1.515 0.879,2.593 0.051,0.766 -0.461,2.547 -1.527,5.34 l -14.039,36.571 c -0.977,2.519 -1.633,4.035 -1.996,4.558 -0.629,0.856 -1.426,1.399 -2.356,1.637 -1.336,0.359 -2.906,0.195 -4.707,-0.496 l -1.847,-0.703 -0.582,1.515 46.543,17.864 6.312,-16.442 -1.555,-0.597 c -2.343,3.718 -4.562,6.179 -6.664,7.363 -2.113,1.199 -4.633,1.711 -7.57,1.531 -1.73,-0.105 -4.684,-0.961 -8.898,-2.578 l -5.743,-2.191" />
        <path
           inkscape:connector-curvature="0"
           id="path4528"
           style="fill:#ffffff;fill-opacity:1;fill-rule:nonzero;stroke:none"
           d="m 403.098,909.195 3.761,-16.265 c 0.723,-3.149 1.368,-5.082 1.938,-5.801 0.57,-0.719 1.41,-1.215 2.488,-1.473 1.082,-0.269 2.942,-0.086 5.598,0.528 l 0.371,-1.59 -29.711,-6.856 -0.359,1.59 c 2.683,0.613 4.437,1.293 5.277,2.008 0.84,0.723 1.367,1.519 1.559,2.402 0.21,0.899 -0.059,2.91 -0.778,6.043 l -8.703,37.668 c -0.715,3.133 -1.363,5.071 -1.934,5.789 -0.585,0.735 -1.406,1.231 -2.488,1.485 -1.082,0.257 -2.957,0.09 -5.594,-0.524 l -0.378,1.574 26.968,6.227 c 7.024,1.617 12.278,2.324 15.754,2.113 3.465,-0.226 6.539,-1.41 9.196,-3.539 2.652,-2.133 4.39,-4.965 5.203,-8.476 0.992,-4.274 0.254,-8.172 -2.172,-11.672 -1.563,-2.231 -4.008,-4.196 -7.356,-5.891 l 18.496,-16.43 c 2.418,-2.109 4.082,-3.402 4.996,-3.851 1.368,-0.617 2.836,-0.781 4.395,-0.508 l 0.375,-1.59 -18.281,-4.215 -24.813,22.122 z m -6.571,28.457 5.864,-25.429 2.441,0.57 c 3.965,0.918 6.859,1.965 8.66,3.148 1.797,1.188 3.043,2.852 3.735,5.012 0.687,2.16 0.675,4.754 -0.032,7.817 -1.019,4.425 -2.804,7.453 -5.371,9.089 -2.547,1.633 -6.117,1.918 -10.722,0.856 l -4.575,-1.063" />
        <path
           inkscape:connector-curvature="0"
           id="path4530"
           style="fill:#ffffff;fill-opacity:1;fill-rule:nonzero;stroke:none"
           d="m 499.305,954.234 1.125,-16.078 -1.578,-0.105 c -1.184,3.644 -2.414,6.242 -3.657,7.773 -1.261,1.539 -2.914,2.731 -4.968,3.555 -1.153,0.449 -3.102,0.57 -5.875,0.387 l -4.426,-0.313 3.191,-45.84 c 0.211,-3.031 0.512,-4.922 0.899,-5.656 0.394,-0.734 1.097,-1.363 2.117,-1.859 1.023,-0.496 2.371,-0.692 4.062,-0.571 l 1.985,0.137 0.105,-1.621 -31.109,-2.176 -0.106,1.621 1.965,0.133 c 1.727,0.121 3.09,0.527 4.094,1.215 0.734,0.465 1.289,1.199 1.648,2.219 0.286,0.738 0.317,2.582 0.11,5.566 l -3.215,45.84 -4.289,-0.301 c -4.004,-0.281 -6.856,-1.332 -8.551,-3.16 -2.367,-2.539 -3.734,-6.031 -4.105,-10.457 l -1.668,-0.121 -1.125,16.094 53.371,3.718" />
        <path
           inkscape:connector-curvature="0"
           id="path4532"
           style="fill:#ffffff;fill-opacity:1;fill-rule:nonzero;stroke:none"
           d="m 539.863,894.688 -0.121,-1.622 -31.062,2.18 0.101,1.617 1.985,-0.133 c 1.722,-0.121 3.132,0.075 4.226,0.614 0.781,0.359 1.41,1.019 1.891,1.992 0.371,0.68 0.664,2.508 0.871,5.477 l 2.726,39.089 c 0.227,3.047 0.196,4.95 -0.074,5.735 -0.269,0.777 -0.867,1.496 -1.812,2.125 -0.946,0.644 -2.239,1.019 -3.903,1.14 l -1.98,0.137 0.121,1.621 31.063,-2.176 -0.114,-1.617 -1.968,0.133 c -1.723,0.117 -3.137,-0.09 -4.231,-0.629 -0.777,-0.348 -1.437,-1.008 -1.934,-1.965 -0.375,-0.691 -0.66,-2.519 -0.871,-5.496 l -2.726,-39.086 c -0.227,-3.047 -0.184,-4.953 0.105,-5.73 0.27,-0.793 0.883,-1.5 1.828,-2.129 0.93,-0.649 2.235,-1.02 3.899,-1.141 l 1.98,-0.136" />
        <path
           inkscape:connector-curvature="0"
           id="path4534"
           style="fill:#ffffff;fill-opacity:1;fill-rule:nonzero;stroke:none"
           d="m 576.012,944.566 -4.242,-24.109 1.675,-0.301 c 2.598,-0.445 4.785,-0.433 6.575,0.063 1.785,0.476 3.402,1.547 4.859,3.195 1.469,1.649 2.652,4.004 3.555,7.098 l 1.515,-0.274 -5.207,-29.461 -1.5,0.274 c 0.422,5.652 -0.418,9.582 -2.547,11.789 -2.117,2.203 -4.726,3.586 -7.816,4.125 l -1.68,0.297 -3.168,-17.953 c -0.527,-3 -0.687,-4.907 -0.496,-5.715 0.199,-0.813 0.738,-1.574 1.606,-2.309 0.855,-0.734 2.113,-1.246 3.769,-1.531 l 1.93,-0.348 -0.266,-1.601 -30.676,5.414 0.27,1.59 1.949,-0.344 c 1.711,-0.305 3.137,-0.227 4.278,0.195 0.824,0.27 1.511,0.856 2.097,1.77 0.434,0.629 0.918,2.41 1.442,5.367 l 6.793,38.582 c 0.527,3 0.707,4.906 0.527,5.715 -0.195,0.808 -0.723,1.574 -1.59,2.308 -0.855,0.735 -2.113,1.246 -3.766,1.532 l -1.933,0.343 0.269,1.606 49.496,-8.731 -2.968,-16.828 -1.77,0.313 c 0.285,4.019 -0.226,7.129 -1.543,9.332 -1.32,2.187 -3.496,3.961 -6.496,5.297 -1.648,0.734 -4.816,1.511 -9.496,2.339 l -5.445,0.961" />
        <path
           inkscape:connector-curvature="0"
           id="path4536"
           style="fill:#ffffff;fill-opacity:1;fill-rule:nonzero;stroke:none"
           d="m 628.23,876.703 -0.421,-1.578 -30.09,8.07 0.422,1.575 1.902,-0.52 c 1.684,-0.437 3.105,-0.516 4.277,-0.184 0.836,0.196 1.59,0.723 2.25,1.579 0.481,0.597 1.125,2.335 1.887,5.218 l 10.145,37.86 c 0.793,2.937 1.125,4.828 1.015,5.64 -0.117,0.825 -0.566,1.637 -1.379,2.442 -0.793,0.797 -1.992,1.425 -3.613,1.847 l -1.906,0.528 0.422,1.558 30.089,-8.058 -0.417,-1.575 -1.922,0.512 c -1.664,0.449 -3.09,0.508 -4.262,0.196 -0.84,-0.211 -1.606,-0.723 -2.293,-1.575 -0.496,-0.601 -1.125,-2.34 -1.891,-5.222 l -10.14,-37.86 c -0.793,-2.937 -1.125,-4.816 -1.004,-5.64 0.133,-0.825 0.601,-1.633 1.39,-2.442 0.813,-0.812 2.012,-1.426 3.633,-1.859 l 1.906,-0.512" />
        <path
           inkscape:connector-curvature="0"
           id="path4538"
           style="fill:#ffffff;fill-opacity:1;fill-rule:nonzero;stroke:none"
           d="m 679.289,893.008 8.473,-32.473 c 1.199,-4.578 2.508,-7.906 3.933,-9.98 1.035,-1.485 2.336,-2.578 3.914,-3.285 l -0.66,-1.481 -28.32,12.613 0.66,1.485 c 1.859,-0.629 3.133,-0.867 3.84,-0.703 0.703,0.179 1.184,0.554 1.441,1.136 0.508,1.125 0.207,3.782 -0.871,7.985 l -5.492,21.254 -2.762,-0.793 -6.597,-14.852 c -1.274,-2.836 -1.891,-4.668 -1.887,-5.504 0.012,-0.844 0.375,-1.715 1.047,-2.613 0.691,-0.899 2.039,-1.797 4.051,-2.699 l -0.661,-1.469 -27.449,12.207 0.66,1.488 1.813,-0.797 c 1.574,-0.703 2.973,-0.992 4.183,-0.855 0.86,0.058 1.684,0.465 2.465,1.199 0.582,0.512 1.469,2.129 2.684,4.863 l 15.945,35.805 c 1.227,2.77 1.86,4.586 1.875,5.414 0.016,0.824 -0.301,1.695 -0.976,2.61 -0.66,0.929 -1.754,1.722 -3.27,2.398 l -1.816,0.809 0.66,1.488 27.094,-12.059 -0.661,-1.488 c -1.847,0.828 -3.378,1.187 -4.578,1.066 -0.855,-0.062 -1.675,-0.433 -2.472,-1.136 -0.629,-0.528 -1.547,-2.18 -2.778,-4.938 l -7.543,-16.937 27.465,7.351 c 3.824,1.02 6.028,2.219 6.645,3.582 0.449,1.02 0.222,2.074 -0.66,3.18 -0.45,0.559 -1.832,1.394 -4.125,2.508 l 0.66,1.484 21.226,-9.449 -0.664,-1.484 c -1.949,0.703 -3.597,1.035 -4.918,0.96 -1.336,-0.062 -4.648,-0.796 -9.961,-2.222 l -21.613,-5.668" />
        <path
           inkscape:connector-curvature="0"
           id="path4540"
           style="fill:#ffffff;fill-opacity:1;fill-rule:nonzero;stroke:none"
           d="m 756.914,875.41 c 7.981,-5.16 12.703,-11.847 14.191,-20.066 1.485,-8.223 -0.316,-15.961 -5.386,-23.207 -4.336,-6.18 -9.957,-10.364 -16.875,-12.524 -9.164,-2.879 -18.133,-1.261 -26.883,4.871 -8.785,6.153 -13.484,13.879 -14.125,23.192 -0.496,7.351 1.512,14.254 6.043,20.715 5.07,7.246 11.762,11.55 20.07,12.933 8.328,1.379 15.973,-0.586 22.965,-5.914 z m -1.172,-2.609 c -4.469,3.121 -9.465,3.226 -14.984,0.301 -4.516,-2.418 -9.223,-7.125 -14.129,-14.133 -5.82,-8.321 -8.672,-15.504 -8.531,-21.535 0.086,-4.219 1.976,-7.606 5.636,-10.172 2.473,-1.727 4.965,-2.578 7.454,-2.535 3.179,0.062 6.558,1.363 10.082,3.914 3.539,2.539 7.199,6.527 10.996,11.941 4.527,6.465 7.304,11.715 8.351,15.75 1.035,4.051 1.094,7.383 0.153,9.992 -0.93,2.625 -2.61,4.781 -5.028,6.477" />
        <path
           inkscape:connector-curvature="0"
           id="path4542"
           style="fill:#ffffff;fill-opacity:1;fill-rule:nonzero;stroke:none"
           d="m 837.793,805.246 -1.113,-1.187 c -1.828,1.218 -4.032,1.695 -6.614,1.41 -1.89,-0.223 -5.582,-1.5 -11.054,-3.797 l -46.051,-19.305 -1.051,0.992 17.356,48.571 c 2.101,5.863 3.183,9.433 3.238,10.742 0.078,1.289 -0.641,2.816 -2.156,4.586 l 1.109,1.199 20.879,-19.484 -1.109,-1.184 -0.707,0.66 c -1.875,1.754 -3.387,2.711 -4.512,2.895 -0.797,0.136 -1.473,-0.106 -2.055,-0.735 -0.359,-0.379 -0.691,-0.918 -1.023,-1.609 -0.313,-0.672 -1.051,-2.621 -2.203,-5.832 l -10.938,-30.344 26.625,11.278 c 3.199,1.367 5.297,2.343 6.274,2.91 0.972,0.586 1.707,1.14 2.234,1.695 0.601,0.648 0.961,1.383 1.082,2.191 0.105,0.809 -0.051,1.649 -0.465,2.536 -0.586,1.214 -1.637,2.535 -3.152,3.961 l 1.109,1.179 14.297,-13.328" />
        <path
           inkscape:connector-curvature="0"
           id="path4544"
           style="fill:#ffffff;fill-opacity:1;fill-rule:nonzero;stroke:none"
           d="m 833.035,739.152 -12.375,17.024 -6.16,-1.379 c -2.043,-0.481 -3.586,-1.082 -4.605,-1.828 -1.352,-0.977 -1.954,-2.25 -1.79,-3.797 0.075,-0.914 0.946,-2.699 2.586,-5.356 l -1.324,-0.961 -11.637,16.036 1.301,0.961 c 1.516,-1.543 3.27,-2.446 5.254,-2.7 1.977,-0.269 5.399,0.121 10.258,1.157 l 50.984,10.691 0.496,-0.672 -26.898,-46.094 c -2.531,-4.382 -3.898,-7.457 -4.105,-9.226 -0.153,-1.336 0.253,-2.793 1.195,-4.336 l -1.305,-0.961 -16.945,23.312 1.32,0.961 0.688,-0.964 c 1.363,-1.875 2.582,-2.997 3.66,-3.375 0.75,-0.254 1.484,-0.102 2.203,0.406 0.422,0.316 0.812,0.707 1.156,1.172 0.18,0.195 0.809,1.203 1.891,3 z m 1.742,3.121 11.387,19.231 -21.98,-4.668 z m 54.016,27.223 -20.879,2.805 -2.223,3.062 15.332,4.828 7.77,-10.695" />
        <path
           inkscape:connector-curvature="0"
           id="path4546"
           style="fill:#ffffff;fill-opacity:1;fill-rule:nonzero;stroke:none"
           d="m 898.77,712.137 -21.059,-42.254 23.203,10.816 c 3.238,1.512 5.219,3 5.926,4.453 0.941,1.996 0.687,4.485 -0.75,7.453 l 1.469,0.692 8.312,-17.832 -1.473,-0.692 c -1.351,2.145 -2.445,3.493 -3.269,4.063 -0.84,0.574 -1.875,0.824 -3.137,0.781 -1.246,-0.062 -3.148,-0.676 -5.699,-1.859 l -44.957,-20.969 -0.625,1.348 27.93,57.496 -34.34,-16.024 c -3.106,-1.437 -4.86,-3.132 -5.293,-5.05 -0.418,-1.938 -0.207,-3.813 0.644,-5.641 l 0.602,-1.277 -1.484,-0.688 -8.93,19.152 1.473,0.692 c 1.41,-2.969 2.984,-4.758 4.726,-5.356 1.738,-0.613 4.051,-0.253 6.914,1.082 l 38.117,17.774 0.883,1.816 c 0.902,1.813 1.379,3.27 1.426,4.352 0.043,1.09 -0.301,2.457 -1.004,4.137 l 1.465,0.691 8.93,-19.156" />
        <path
           inkscape:connector-curvature="0"
           id="path4548"
           style="fill:#ffffff;fill-opacity:1;fill-rule:nonzero;stroke:none"
           d="m 175.344,325.867 -24.938,-11.633 -0.965,2.067 c 5.778,4.597 9.411,9.82 10.907,15.703 1.484,5.855 0.976,11.488 -1.535,16.871 -2.094,4.496 -5.301,8.008 -9.645,10.555 -4.34,2.543 -8.996,3.726 -13.984,3.492 -6.387,-0.262 -12.86,-1.91 -19.403,-4.961 -6.433,-3 -11.926,-6.555 -16.4607,-10.652 -4.5312,-4.102 -7.3515,-8.508 -8.4297,-13.246 -1.1054,-4.731 -0.3515,-9.852 2.2266,-15.379 2.1133,-4.532 5.0273,-8.227 8.7808,-11.067 3.735,-2.851 8.993,-5.23 15.801,-7.152 l -6.215,-2.899 c -6.089,2.082 -11.117,4.856 -15.0387,8.348 -3.9453,3.496 -7.2617,8.152 -9.9922,14.008 -3.5781,7.664 -5.2226,15.215 -4.9258,22.617 0.3047,7.402 2.5782,14.07 6.8282,20 4.2773,5.922 9.6601,10.418 16.1715,13.453 6.871,3.203 14.215,4.446 22.059,3.711 7.836,-0.715 14.879,-3.324 21.113,-7.851 6.258,-4.52 10.969,-10.223 14.172,-17.094 2.359,-5.055 3.766,-10.91 4.199,-17.57 0.258,-3.852 0.567,-6.223 0.981,-7.114 0.523,-1.121 1.394,-1.906 2.617,-2.355 1.227,-0.446 2.801,-0.367 4.711,0.215 z m -13.481,36.723 15.289,20.172 1.875,-4.028 -5.031,-17.793 16.692,-8.058 2.027,-4.356 -25.254,2.063 -5.598,12" />
        <path
           inkscape:connector-curvature="0"
           id="path4550"
           style="fill:#ffffff;fill-opacity:1;fill-rule:nonzero;stroke:none"
           d="m 208.754,278.688 -21.031,-16.098 -1.422,1.957 c 4.711,4.812 7.398,10.195 8.074,16.176 0.656,5.965 -0.52,11.019 -3.551,15.195 -2.344,3.219 -5.054,5.152 -8.148,5.77 -3.09,0.652 -5.762,0.14 -8.012,-1.493 -1.41,-1.023 -2.437,-2.289 -3.059,-3.754 -0.828,-1.984 -1.234,-4.527 -1.203,-7.597 0.028,-2.254 0.68,-7.024 1.926,-14.321 1.762,-10.218 1.945,-17.824 0.567,-22.832 -1.391,-4.988 -4.204,-9.011 -8.446,-12.093 -5.371,-3.903 -11.523,-5.16 -18.426,-3.793 -6.914,1.379 -12.718,5.293 -17.402,11.73 -1.465,2.024 -2.652,4.102 -3.555,6.192 -0.886,2.101 -1.753,4.933 -2.597,8.472 -0.477,1.981 -1.071,3.449 -1.778,4.422 -0.601,0.824 -1.543,1.477 -2.832,1.922 -1.296,0.465 -2.812,0.504 -4.519,0.129 l -1.27,1.75 24.27,17.629 1.273,-1.746 c -5.816,-6.352 -9.074,-12.793 -9.769,-19.387 -0.719,-6.57 0.594,-12.148 3.922,-16.727 2.57,-3.546 5.589,-5.656 9.043,-6.359 3.453,-0.703 6.464,-0.125 9.023,1.734 1.52,1.106 2.699,2.579 3.531,4.426 0.825,1.828 1.301,4.031 1.383,6.61 0.078,2.578 -0.363,6.687 -1.34,12.351 -1.363,7.938 -1.976,13.918 -1.812,17.942 0.152,4.043 0.996,7.648 2.488,10.835 1.492,3.184 3.738,5.879 6.75,8.063 5.113,3.719 10.859,5 17.191,3.863 6.332,-1.16 11.571,-4.597 15.719,-10.308 1.52,-2.086 2.746,-4.282 3.668,-6.606 0.692,-1.769 1.313,-4.09 1.817,-6.961 0.531,-2.875 1.105,-4.758 1.718,-5.597 0.598,-0.825 1.328,-1.286 2.172,-1.391 0.856,-0.121 2.383,0.324 4.606,1.316 l 1.031,-1.421" />
        <path
           inkscape:connector-curvature="0"
           id="path4552"
           style="fill:#ffffff;fill-opacity:1;fill-rule:nonzero;stroke:none"
           d="m 231.094,250.656 -4.938,-62.773 23.297,24.984 c 3.246,3.481 4.942,6.297 5.094,8.453 0.168,2.938 -1.379,5.883 -4.668,8.836 l 1.488,1.598 19.192,-17.895 -1.489,-1.597 c -2.742,1.984 -4.765,3.105 -6.074,3.394 -1.312,0.297 -2.734,0.094 -4.254,-0.597 -1.515,-0.692 -3.566,-2.418 -6.113,-5.153 l -45.125,-48.386 -1.461,1.367 5.832,85.019 -34.457,-36.949 c -3.105,-3.332 -4.445,-6.293 -4,-8.898 0.414,-2.602 1.621,-4.825 3.582,-6.653 l 1.375,-1.281 -1.473,-1.582 -20.609,19.219 1.473,1.582 c 3.23,-2.957 6.07,-4.371 8.527,-4.258 2.457,0.113 5.117,1.707 7.996,4.793 l 38.246,41.012 0.207,2.707 c 0.199,2.687 0.063,4.703 -0.429,6.086 -0.485,1.355 -1.602,2.89 -3.317,4.597 l 1.492,1.594 20.606,-19.219" />
        <path
           inkscape:connector-curvature="0"
           id="path4554"
           style="fill:#ffffff;fill-opacity:1;fill-rule:nonzero;stroke:none"
           d="m 316.922,178.398 -14.684,-28.82 1.407,-0.715 c 4.492,-2.289 8.449,-2.535 11.921,-0.754 3.446,1.789 6.852,5.305 10.219,10.504 l 1.981,-1.008 -18.887,-37.062 -1.977,1.008 c 1.629,4.262 2.438,8.004 2.418,11.269 -0.035,3.274 -0.707,5.793 -2.035,7.59 -1.32,1.77 -3.676,3.535 -7.043,5.25 l -10.16,-19.941 c -1.992,-3.903 -3.039,-6.356 -3.144,-7.399 -0.125,-1.035 0.136,-2.066 0.761,-3.082 0.602,-1.027 1.926,-2.039 3.961,-3.074 l 4.223,-2.152 c 6.609,-3.367 12.683,-4.532 18.238,-3.5 5.543,1.011 10.777,4.23 15.715,9.613 l 1.926,-0.98 -14.641,-20.8911 -61.191,31.1761 0.98,1.925 2.352,-1.195 c 2.047,-1.043 3.894,-1.515 5.515,-1.422 1.153,0.02 2.278,0.504 3.364,1.45 0.812,0.625 2.125,2.714 3.941,6.281 l 23.727,46.558 c 1.632,3.211 2.543,5.219 2.738,6.036 0.277,1.386 0.098,2.664 -0.492,3.796 -0.836,1.661 -2.391,3.059 -4.692,4.231 l -2.351,1.199 0.992,1.941 59.25,-30.187 -10.672,-20.938 -1.977,1.004 c 1.594,5.633 2.051,10.024 1.356,13.184 -0.684,3.156 -2.434,6.113 -5.258,8.852 -1.613,1.632 -5.113,3.793 -10.476,6.531 l -7.305,3.722" />
        <path
           inkscape:connector-curvature="0"
           id="path4556"
           style="fill:#ffffff;fill-opacity:1;fill-rule:nonzero;stroke:none"
           d="m 384.277,153.547 25.11,-57.7501 8.84,32.9961 c 1.234,4.598 1.41,7.883 0.531,9.855 -1.231,2.672 -3.981,4.547 -8.27,5.614 l 0.567,2.109 25.343,-6.793 -0.566,-2.109 c -3.355,0.465 -5.664,0.504 -6.957,0.148 -1.297,-0.355 -2.457,-1.203 -3.473,-2.527 -1.019,-1.32 -2.011,-3.809 -2.984,-7.418 l -17.121,-63.9103 -1.934,0.5196 -34.765,77.8127 -13.075,-48.801 c -1.179,-4.4024 -0.972,-7.6485 0.641,-9.7383 1.594,-2.1016 3.699,-3.4961 6.293,-4.1914 l 1.813,-0.4844 -0.559,-2.0859 -27.219,7.2929 0.559,2.086 c 4.242,-1.0977 7.41,-1.0117 9.523,0.2422 2.121,1.2539 3.723,3.9101 4.813,7.9843 l 14.515,54.1716 -1.089,2.485 c -1.083,2.465 -2.153,4.183 -3.235,5.172 -1.062,0.968 -2.769,1.8 -5.086,2.503 l 0.567,2.11 27.218,-7.293" />
        <path
           inkscape:connector-curvature="0"
           id="path4558"
           style="fill:#ffffff;fill-opacity:1;fill-rule:nonzero;stroke:none"
           d="m 507.563,57.1172 -0.04,-2.1602 -41.531,0.7266 0.035,2.1602 2.641,-0.0469 c 2.297,-0.0391 4.168,0.3437 5.578,1.1406 1.031,0.5234 1.824,1.4492 2.391,2.7813 0.453,0.9101 0.718,3.3671 0.789,7.3671 l 0.914,52.2541 c 0.07,4.058 -0.11,6.601 -0.527,7.625 -0.403,1.031 -1.25,1.922 -2.555,2.707 -1.285,0.781 -3.063,1.191 -5.278,1.23 l -2.64,0.047 0.039,2.184 41.531,-0.727 -0.039,-2.183 -2.637,0.047 c -2.3,0.043 -4.168,-0.329 -5.582,-1.122 -1.031,-0.543 -1.847,-1.449 -2.449,-2.777 -0.437,-0.933 -0.699,-3.387 -0.765,-7.367 l -0.915,-52.2501 c -0.07,-4.0625 0.102,-6.6055 0.528,-7.6328 0.441,-1.0273 1.304,-1.9258 2.594,-2.707 1.304,-0.8008 3.054,-1.211 5.277,-1.25 l 2.641,-0.0469" />
        <path
           inkscape:connector-curvature="0"
           id="path4560"
           style="fill:#ffffff;fill-opacity:1;fill-rule:nonzero;stroke:none"
           d="m 570.941,139.516 2.504,-26.371 -2.41,-0.165 c -1.582,6.54 -4.726,11.676 -9.441,15.415 -4.711,3.722 -9.621,5.402 -14.766,5.043 -3.973,-0.278 -7.047,-1.555 -9.215,-3.856 -2.183,-2.269 -3.172,-4.809 -2.976,-7.582 0.121,-1.738 0.648,-3.281 1.562,-4.582 1.246,-1.758 3.188,-3.445 5.805,-5.047 1.926,-1.168 6.316,-3.148 13.168,-5.953 9.598,-3.926 16.144,-7.7969 19.66,-11.6211 3.492,-3.8242 5.414,-8.3438 5.781,-13.5703 0.461,-6.6211 -1.73,-12.5078 -6.547,-17.6368 -4.836,-5.1328 -11.23,-7.9804 -19.168,-8.539 -2.496,-0.1758 -4.89,-0.082 -7.14,0.2617 -2.25,0.3633 -5.11,1.125 -8.559,2.293 -1.929,0.6445 -3.492,0.914 -4.687,0.832 -1.02,-0.0703 -2.071,-0.5234 -3.133,-1.3789 -1.082,-0.8594 -1.918,-2.1211 -2.504,-3.7656 l -2.156,-0.1524 -2.094,29.9258 2.156,0.1524 c 2.305,-8.2969 6.047,-14.4766 11.266,-18.5586 5.195,-4.0899 10.617,-5.9375 16.262,-5.5391 4.371,0.3047 7.761,1.7422 10.187,4.3008 2.426,2.5547 3.531,5.4179 3.309,8.5703 -0.129,1.875 -0.758,3.6523 -1.879,5.3398 -1.117,1.668 -2.731,3.2422 -4.875,4.6719 -2.149,1.4375 -5.863,3.2422 -11.184,5.4141 -7.453,3.0468 -12.847,5.6992 -16.176,7.9726 -3.347,2.2696 -5.957,4.8944 -7.871,7.8514 -1.91,2.949 -3.004,6.285 -3.265,9.996 -0.442,6.301 1.519,11.852 5.84,16.625 4.339,4.754 10.027,7.379 17.07,7.871 2.574,0.18 5.09,0.055 7.543,-0.394 1.871,-0.348 4.168,-1.051 6.871,-2.145 2.719,-1.074 4.617,-1.586 5.656,-1.511 1.02,0.07 1.793,0.445 2.332,1.105 0.555,0.664 0.985,2.195 1.321,4.602 l 1.753,0.125" />
        <path
           inkscape:connector-curvature="0"
           id="path4562"
           style="fill:#ffffff;fill-opacity:1;fill-rule:nonzero;stroke:none"
           d="m 620.66,152.734 c 12.106,3.739 22.992,2.829 32.672,-2.699 9.664,-5.547 16.031,-14.004 19.082,-25.402 2.613,-9.738 2.066,-19.059 -1.652,-27.9846 -4.922,-11.8359 -14.27,-19.6015 -28.043,-23.2929 -13.793,-3.6953 -25.731,-1.8828 -35.793,5.4609 -7.934,5.8086 -13.278,13.7774 -15.996,23.9176 -3.055,11.399 -1.719,21.942 3.992,31.614 5.73,9.691 14.293,15.816 25.738,18.386 z m 1.664,-3.425 c -7.031,-1.887 -11.402,-6.911 -13.148,-15.059 -1.403,-6.672 -0.625,-15.531 2.328,-26.543 3.508,-13.0976 8.398,-22.1601 14.676,-27.1836 4.383,-3.5312 9.468,-4.5039 15.242,-2.957 3.883,1.0391 6.875,2.8555 8.98,5.4258 2.661,3.3008 4.211,7.8594 4.641,13.6719 0.437,5.7889 -0.488,12.9529 -2.773,21.4729 -2.723,10.16 -5.7,17.5 -8.942,22.015 -3.242,4.536 -6.59,7.446 -10.086,8.743 -3.472,1.289 -7.109,1.429 -10.918,0.414" />
        <path
           inkscape:connector-curvature="0"
           id="path4564"
           style="fill:#ffffff;fill-opacity:1;fill-rule:nonzero;stroke:none"
           d="m 717.375,199.207 34.434,-55.105 c 2.586,-4.137 4.425,-6.664 5.504,-7.594 1.082,-0.906 2.425,-1.363 4.039,-1.367 1.605,-0.012 3.707,0.781 6.25,2.371 l 1.543,0.965 1.144,-1.832 -35.48,-22.172 -1.145,1.832 1.797,1.125 c 2.883,1.8 4.727,3.422 5.535,4.847 0.805,1.422 1.063,2.856 0.766,4.278 -0.282,1.425 -1.754,4.281 -4.403,8.519 l -21.824,34.922 c -1.949,3.121 -3.32,4.981 -4.101,5.547 -0.778,0.602 -1.75,0.914 -2.914,0.965 -1.153,0.035 -2.254,-0.278 -3.309,-0.934 -1.695,-1.062 -3.418,-2.867 -5.176,-5.453 l -2.004,1.246 17.699,26.817 1.645,1.023" />
        <path
           inkscape:connector-curvature="0"
           id="path4566"
           style="fill:#ffffff;fill-opacity:1;fill-rule:nonzero;stroke:none"
           d="m 769.344,172.973 -3.973,63.449 5.484,4.601 32.883,-39.191 5.563,4.668 7.793,-9.285 -5.563,-4.664 11.453,-13.653 -12.347,-10.359 -11.457,13.649 -22.043,-18.5 z m 4.367,3.664 17.68,14.836 -20.145,24.007 z" />
        <path
           inkscape:connector-curvature="0"
           id="path4568"
           style="fill:#ffffff;fill-opacity:1;fill-rule:nonzero;stroke:none"
           d="m 845.906,262.941 c 5.977,-5.195 10.84,-10.882 14.559,-17.082 2.32,-3.769 3.765,-7.382 4.32,-10.859 0.555,-3.449 0.488,-6.781 -0.183,-9.961 -0.684,-3.195 -2.114,-6.062 -4.317,-8.598 -2.508,-2.882 -5.515,-4.851 -9.004,-5.902 -3.508,-1.051 -7.41,-1.269 -11.715,-0.703 -3.136,0.445 -6.789,1.637 -10.968,3.57 -5.614,2.653 -10.813,6.063 -15.614,10.235 -6.519,5.668 -11.726,11.785 -15.589,18.343 -3.196,5.434 -4.672,10.715 -4.399,15.883 0.266,5.153 1.879,9.446 4.844,12.856 3.031,3.488 7.043,5.699 12.039,6.656 4.996,0.957 10.121,0.394 15.355,-1.664 7.246,-2.824 14.121,-7.082 20.672,-12.774 z m -11.929,-13.535 c -10.504,9.133 -16.672,14.387 -18.508,15.778 -4.34,3.265 -7.735,4.968 -10.156,5.113 -1.579,0.074 -3.098,-0.699 -4.543,-2.356 -1.102,-1.269 -1.606,-2.582 -1.54,-3.937 0.083,-1.981 1.27,-4.309 3.547,-6.953 2.258,-2.653 11.2,-10.746 26.813,-24.313 8.48,-7.375 14.418,-12.035 17.828,-13.961 2.465,-1.375 4.418,-1.961 5.852,-1.746 1.429,0.215 2.722,0.996 3.906,2.356 1.285,1.476 1.773,2.988 1.465,4.554 -0.571,2.668 -2.504,5.594 -5.801,8.754 l -18.863,16.711" />
        <path
           inkscape:connector-curvature="0"
           id="path4570"
           style="fill:#ffffff;fill-opacity:1;fill-rule:nonzero;stroke:none"
           d="m 881.074,317.184 c 6.641,-4.313 12.25,-9.262 16.797,-14.891 2.82,-3.406 4.754,-6.781 5.785,-10.148 1.032,-3.34 1.434,-6.653 1.207,-9.891 -0.23,-3.262 -1.25,-6.297 -3.078,-9.113 -2.078,-3.207 -4.785,-5.575 -8.09,-7.102 -3.332,-1.527 -7.164,-2.285 -11.504,-2.324 -3.168,0 -6.953,0.672 -11.359,2.004 -5.93,1.851 -11.555,4.5 -16.887,7.965 -7.246,4.707 -13.254,10.035 -17.992,16 -3.922,4.933 -6.117,9.961 -6.566,15.113 -0.453,5.137 0.547,9.613 3.008,13.406 2.515,3.875 6.183,6.621 10.996,8.266 4.812,1.64 9.968,1.797 15.437,0.488 7.567,-1.789 14.965,-5.047 22.246,-9.773 z m -9.926,-15.063 c -11.675,7.578 -18.511,11.926 -20.527,13.043 -4.75,2.633 -8.351,3.852 -10.769,3.656 -1.571,-0.148 -2.969,-1.125 -4.164,-2.968 -0.918,-1.411 -1.235,-2.778 -0.981,-4.11 0.359,-1.953 1.856,-4.09 4.481,-6.394 2.605,-2.309 12.585,-9.082 29.933,-20.344 9.426,-6.121 15.957,-9.91 19.602,-11.344 2.629,-1.019 4.644,-1.328 6.035,-0.914 1.387,0.41 2.558,1.363 3.539,2.875 1.066,1.641 1.34,3.203 0.816,4.715 -0.933,2.562 -3.258,5.191 -6.961,7.859 l -21.004,13.926" />
        <path
           inkscape:connector-curvature="0"
           id="path4572"
           style="fill:#ffffff;fill-opacity:1;fill-rule:nonzero;stroke:none"
           d="m 861.051,375.535 60.242,-24.34 c 4.527,-1.832 7.504,-2.793 8.922,-2.914 1.406,-0.093 2.765,0.328 4.07,1.27 1.309,0.933 2.539,2.812 3.664,5.59 l 0.684,1.691 2,-0.812 -15.672,-38.79 -2.004,0.805 0.797,1.969 c 1.269,3.152 1.809,5.543 1.621,7.172 -0.18,1.629 -0.816,2.941 -1.891,3.914 -1.062,0.988 -3.937,2.43 -8.57,4.305 L 876.73,350.82 c -3.41,1.375 -5.609,2.075 -6.578,2.078 -0.98,0.032 -1.953,-0.289 -2.925,-0.933 -0.95,-0.652 -1.657,-1.551 -2.122,-2.703 -0.75,-1.852 -1.085,-4.328 -0.984,-7.449 l -2.355,-0.172 -1.446,32.093 0.731,1.801" />
        <path
           inkscape:connector-curvature="0"
           id="path4574"
           style="fill:none;stroke:#ffffff;stroke-width:28.3465004;stroke-linecap:butt;stroke-linejoin:miter;stroke-miterlimit:22.92560005;stroke-dasharray:none;stroke-opacity:1"
           d="M 4.85547,499.238 H 1009" />
        <path
           inkscape:connector-curvature="0"
           id="path4576"
           style="fill:none;stroke:#2154ac;stroke-width:6.72100019;stroke-linecap:butt;stroke-linejoin:miter;stroke-miterlimit:22.92560005;stroke-dasharray:none;stroke-opacity:1"
           d="M 502.402,714.324 204.07,565.355 221.621,538.375 502.402,674.5 789.598,538.375 l 14.847,26.98 z" />
        <path
           inkscape:connector-curvature="0"
           id="path4578"
           style="fill:#2154ac;fill-opacity:1;fill-rule:evenodd;stroke:none"
           d="m 510.703,620.797 c 1.106,1.383 2.766,6.363 0.828,6.918 -27.945,-0.555 -89.375,-46.211 -92.972,-97.399 -2.211,-31.546 21.582,-52.574 83.566,-43.164 40.953,6.086 86.605,38.184 94.91,76.09 5.809,26.84 -5.812,57.832 -51.191,58.664 -31.543,0.551 -65.856,-17.988 -71.668,-37.633 -0.551,-4.152 5.262,-5.257 8.578,-2.769 4.703,16.605 24.351,27.949 37.633,30.992 27.39,5.813 52.297,-4.426 59.488,-26.562 20.199,-61.981 -57.551,-90.481 -84.391,-89.098 -24.074,1.105 -58.382,1.66 -59.765,37.355 -2.492,58.938 66.957,91.313 74.984,86.606 z M 468.09,469.441 c 8.855,6.641 24.902,9.133 37.355,9.961 25.457,1.383 53.68,-5.535 80.243,-2.214 9.96,1.386 16.878,3.597 22.414,13.835 1.105,1.661 6.086,0.278 6.086,-1.656 -0.829,-10.242 -4.704,-18.543 -17.153,-23.523 -9.965,-4.149 -20.758,-3.871 -32.375,-2.489 -18.539,2.489 -38.465,6.918 -58.109,7.196 -10.789,0.273 -30.16,-3.047 -35.141,-5.813 -2.492,-1.66 -5.258,3.043 -3.32,4.703" />
        <path
           inkscape:connector-curvature="0"
           id="path4580"
           style="fill:#2154ac;fill-opacity:1;fill-rule:evenodd;stroke:none"
           d="m 675.063,404.969 c 0,7.75 -1.383,12.176 -5.809,14.668 -1.387,0 -8.305,0.551 -11.625,0.551 -2.492,0 -4.149,-1.661 -4.149,-4.149 v -24.074 c 6.637,0 15.774,0 17.708,1.937 3.32,2.489 3.875,4.981 3.875,11.067 z m 5.812,-47.035 -19.926,30.711 h -7.469 v -21.032 c 0,-2.765 0.833,-4.422 1.657,-5.254 0.832,-1.109 3.324,-1.66 6.644,-1.66 v -2.765 h -28.5 v 2.765 c 0.551,0 2.215,0 3.321,0 0.554,0.551 1.382,0.551 2.488,1.66 0.832,0.832 1.387,3.598 1.387,6.918 v 42.614 c 0,3.316 -0.555,5.254 -1.387,6.914 -1.106,0.832 -2.488,1.664 -5.809,1.664 v 2.765 h 29.883 c 6.641,0 13.281,-0.832 17.434,-2.492 3.597,-2.488 8.297,-5.258 10.238,-11.621 0.273,-0.828 0,-2.488 0,-4.152 0,-2.489 -1.109,-4.703 -2.766,-7.469 -1.664,-3.32 -6.922,-7.195 -12.73,-8.023 l 17.984,-25.457 c 0.278,-0.555 3.875,-3.043 5.531,-3.043 v -3.043 z m -57.004,20.75 -4.148,-21.032 h -54.235 v 4.153 c 1.66,0 3.321,0 4.426,0 0.555,0 1.383,0.828 2.492,0.828 0.555,0.832 1.383,2.769 1.383,6.09 v 43.168 c 0,3.316 0,5.254 -0.828,6.914 -0.555,0.832 -3.047,1.937 -7.473,1.937 v 2.492 h 53.403 v -19.371 h -1.661 c -1.656,8.856 -4.425,12.176 -10.234,13.836 -2.492,0.828 -6.644,1.383 -10.519,1.383 -2.489,0 -4.7,0 -5.809,-0.555 -1.105,-0.828 -1.938,-0.828 -1.938,-3.32 v -20.75 c 5.258,0 6.09,0.277 8.579,1.934 2.492,1.664 3.875,6.644 4.707,11.902 h 2.488 v -32.375 h -2.488 c 0,1.656 -0.278,3.043 -0.278,4.703 -0.832,1.109 -0.554,3.32 -1.386,4.149 -1.661,2.492 -2.766,3.875 -4.426,3.875 -3.043,1.382 -4.703,0.832 -7.196,1.105 v -23.52 c 0,-1.656 1.11,-2.765 1.938,-3.597 1.66,-0.828 3.875,-0.828 6.367,-0.828 14.383,0.277 19.363,5.535 24.348,16.879 z m -69.726,-8.301 c -6.918,-11.067 -15.497,-13.559 -26.29,-13.559 -3.316,0 -5.257,0.555 -9.406,1.383 -3.32,0.832 -10.793,3.598 -14.109,7.195 -2.492,2.493 -4.707,5.258 -6.645,9.407 -5.257,11.07 -4.98,24.629 3.047,37.082 2.488,4.148 5.531,5.808 9.129,8.851 4.43,3.598 14.391,4.426 19.371,4.426 3.317,0 5.531,0 9.961,-1.105 2.211,0 10.238,-6.364 12.727,0.828 l 2.492,-0.274 0.277,-21.859 h -2.492 c -2.488,5.258 -3.043,9.406 -7.195,12.726 -2.489,1.938 -5.532,3.321 -7.746,4.153 -1.938,0.832 -5.258,0.551 -6.918,0.551 -4.981,0 -11.899,-3.317 -14.664,-8.024 -9.411,-15.773 -6.918,-30.992 -0.555,-42.609 1.66,-2.77 4.152,-4.707 6.641,-6.09 2.769,-1.66 4.98,-1.938 7.472,-1.938 2.488,0 4.149,0 6.641,0.832 1.656,0 4.426,1.106 5.808,2.766 4.43,1.66 7.75,5.258 9.133,7.75 z m -63.364,50.359 c -1.66,0 -4.98,-1.105 -5.812,-1.937 -1.66,-0.828 -1.938,-3.043 -3.321,-6.086 l -24.074,-54.785 h -2.488 l -22.414,53.125 c -1.938,3.871 -2.492,6.918 -4.149,7.746 0,0 -0.832,0.832 -1.66,0.832 -0.832,1.105 -1.664,1.105 -3.32,1.105 v 2.492 h 27.668 v -2.492 h -0.277 c -0.832,0 -1.661,0 -1.661,0 -1.105,0 -3.593,-0.554 -4.152,-1.937 v -0.828 c 0,-0.832 0,-0.832 0,-0.832 0,-1.938 0.832,-2.489 0.832,-2.489 0,-1.109 0.551,-1.937 0.832,-2.765 l 13.836,-32.375 15.492,33.203 c 0.278,0.828 0.555,1.937 0.555,2.765 0,0.829 0,0.829 0,1.661 0,2.765 -1.66,3.597 -6.641,3.597 v 2.492 h 20.754 z m -90.484,-36.801 -8.578,19.922 -9.129,-19.922 z m 0,-25.734 v 2.77 c 2.492,0 3.047,0 3.875,0 1.66,0.828 2.488,1.937 2.488,3.597 0,0.828 0.832,1.656 0.281,3.039 l -4.707,11.071 h -21.582 l -4.703,-10.512 -1.109,-2.77 c 0,-2.488 3.598,-4.425 7.75,-4.425 v -3.043 h -20.199 v 3.043 c 1.656,0 3.597,1.105 4.98,2.765 2.488,2.488 0.832,0.555 4.149,7.746 l 23.796,52.575 h 2.489 l 21.586,-52.02 c 1.105,-3.043 3.043,-5.258 4.152,-8.023 1.105,-2.493 5.254,-1.938 5.254,-2.77 v -3.043 z m -42.055,48.426 h -2.769 c -0.828,5.258 -1.383,5.258 -3.598,8.297 -1.105,1.383 -3.043,2.492 -5.535,3.324 -3.043,0.551 -5.809,0.273 -9.129,0.273 v -50.355 c 0,-3.598 0.551,-3.875 2.488,-5.813 0.555,-0.832 3.043,-1.382 6.367,-1.382 l -0.277,-3.325 h -31.824 v 3.325 c 4.152,0 5.812,0 6.644,1.656 1.661,0.832 1.661,3.047 1.661,6.367 v 49.527 c -2.493,0 -5.536,0.278 -7.196,0 -3.875,-0.55 -5.812,-1.656 -7.472,-2.488 -2.489,-2.766 -3.043,-3.32 -3.872,-9.406 h -2.492 v 16.601 h 57.004 z m 403.981,0 h -2.766 c -0.832,5.258 -1.383,5.258 -3.598,8.297 -1.109,1.383 -3.043,2.492 -5.535,3.324 -3.043,0.551 -5.808,0.273 -9.133,0.273 v -50.355 c 0,-3.598 0.559,-3.875 2.493,-5.813 0.554,-0.832 3.046,-1.382 6.363,-1.382 l -0.277,-3.325 h -31.817 v 3.325 c 4.149,0 5.809,0 6.641,1.656 1.656,0.832 1.656,3.047 1.656,6.367 v 49.527 c -2.488,0 -5.531,0.278 -7.191,0 -3.875,-0.55 -5.813,-1.656 -7.473,-2.488 -2.488,-2.766 -3.043,-3.32 -3.875,-9.406 h -2.488 v 16.601 h 57 z M 290.445,376.469 c 0,-2.489 -1.105,-5.258 -2.211,-8.024 -0.832,-2.488 -2.214,-4.148 -4.152,-6.086 -2.488,-1.66 -3.875,-3.32 -6.641,-4.152 -2.488,-0.828 -4.703,-1.383 -8.023,-1.383 -0.828,0 -1.66,0 -2.488,0 v 0 c -2.492,0 -3.321,0.278 -4.981,0.278 -1.664,0 -4.707,2.214 -6.09,3.043 -2.488,1.382 -4.148,0.832 -4.148,0.832 -1.66,0 -3.047,-3.325 -3.875,-4.153 h -2.492 v 22.692 h 2.492 c 0.828,-5.258 2.769,-7.196 5.258,-12.453 1.66,-1.661 4.98,-3.872 6.64,-4.704 2.493,-1.937 5.809,-1.937 9.129,-1.937 0.832,0 2.492,0 3.325,1.105 1.656,0 3.871,1.387 5.531,3.047 1.66,1.656 1.937,3.598 1.937,7.196 0,3.316 -2.215,6.914 -6.363,9.128 l -9.684,4.704 c -14.113,6.918 -16.05,11.343 -17.433,19.367 -0.555,3.324 0.832,6.09 1.66,8.578 1.66,2.766 3.32,5.535 4.98,7.195 4.153,2.766 8.301,4.426 13.559,4.426 1.383,0 2.215,0 3.871,0 0.832,-0.828 2.492,-1.105 4.43,-1.66 l 6.64,-1.934 c 1.383,0 3.321,0.828 3.321,2.489 h 2.492 v -21.028 h -2.492 c -0.832,4.426 -2.766,8.856 -6.086,12.172 -3.047,4.43 -7.196,6.086 -12.176,6.086 -3.32,0 -5.258,-0.551 -6.918,-2.488 -0.828,-0.828 -1.66,-1.66 -2.488,-2.492 0,-1.657 -0.832,-2.766 -0.832,-4.422 0,-1.664 0.832,-3.598 1.66,-5.258 1.66,-1.664 4.152,-3.875 6.086,-4.707 l 9.41,-4.149 c 3.875,-1.66 6.641,-3.32 9.129,-5.257 1.66,-0.832 1.383,-1.661 2.215,-2.493 0.551,-1.66 1.66,-2.488 3.043,-4.425 0.832,-2.489 2.765,-5.536 2.765,-9.133" />
      </g>
    </g>
  </g>
</svg>
