<?xml version="1.0" encoding="UTF-8" standalone="no"?>
<!-- Created with Inkscape (http://www.inkscape.org/) -->

<svg
   xmlns:dc="http://purl.org/dc/elements/1.1/"
   xmlns:cc="http://creativecommons.org/ns#"
   xmlns:rdf="http://www.w3.org/1999/02/22-rdf-syntax-ns#"
   xmlns:svg="http://www.w3.org/2000/svg"
   xmlns="http://www.w3.org/2000/svg"
   xmlns:sodipodi="http://sodipodi.sourceforge.net/DTD/sodipodi-0.dtd"
   xmlns:inkscape="http://www.inkscape.org/namespaces/inkscape"
   width="37.423988mm"
   height="37.12664mm"
   viewBox="0 0 37.423988 37.12664"
   version="1.1"
   id="svg8"
   inkscape:version="0.92.2 (5c3e80d, 2017-08-06)"
   sodipodi:docname="ohms_logo.svg">
  <defs
     id="defs2" />
  <sodipodi:namedview
     id="base"
     pagecolor="#ffffff"
     bordercolor="#666666"
     borderopacity="1.0"
     inkscape:pageopacity="0.0"
     inkscape:pageshadow="2"
     inkscape:zoom="11.2"
     inkscape:cx="61.718555"
     inkscape:cy="103.42641"
     inkscape:document-units="mm"
     inkscape:current-layer="layer1"
     showgrid="false"
     fit-margin-top="1"
     fit-margin-left="1"
     fit-margin-right="1"
     fit-margin-bottom="1"
     showguides="true"
     inkscape:guide-bbox="true"
     inkscape:window-width="2560"
     inkscape:window-height="1377"
     inkscape:window-x="1912"
     inkscape:window-y="-8"
     inkscape:window-maximized="1">
    <sodipodi:guide
       position="0.70158252,22.884952"
       orientation="1,0"
       id="guide4617"
       inkscape:locked="false" />
    <sodipodi:guide
       position="20.145441,36.44888"
       orientation="0,1"
       id="guide4619"
       inkscape:locked="false" />
    <sodipodi:guide
       position="36.582517,16.604118"
       orientation="1,0"
       id="guide4621"
       inkscape:locked="false" />
    <sodipodi:guide
       position="17.439337,0.70158247"
       orientation="0,1"
       id="guide4623"
       inkscape:locked="false" />
  </sodipodi:namedview>
  <metadata
     id="metadata5">
    <rdf:RDF>
      <cc:Work
         rdf:about="">
        <dc:format>image/svg+xml</dc:format>
        <dc:type
           rdf:resource="http://purl.org/dc/dcmitype/StillImage" />
        <dc:title />
      </cc:Work>
    </rdf:RDF>
  </metadata>
  <g
     inkscape:label="Vrstva 1"
     inkscape:groupmode="layer"
     id="layer1"
     transform="translate(38.744732,-130.27001)">
    <ellipse
       style="fill:#ffffff;fill-opacity:1;stroke:none;stroke-width:0.26499999;stroke-linecap:round;stroke-linejoin:round;stroke-miterlimit:4;stroke-dasharray:0.13249999, 0.13249999000000001;stroke-dashoffset:0;stroke-opacity:1"
       id="path4625"
       cx="-20.102682"
       cy="148.78801"
       rx="17.773424"
       ry="17.673197" />
    <g
       transform="matrix(0.35277777,0,0,-0.35277777,-37.946478,166.72527)"
       inkscape:label="ink_ext_XXXXXX"
       id="g5260">
      <g
         transform="scale(0.1)"
         id="g5262">
        <path
           inkscape:connector-curvature="0"
           id="path5264"
           style="fill:#ea2832;fill-opacity:1;fill-rule:evenodd;stroke:none"
           d="m 504.953,1004.79 c 274.91,0 497.857,-222.95 497.857,-497.86 C 1002.81,232.016 779.863,9.07031 504.953,9.07031 230.039,9.07031 7.09766,232.016 7.09766,506.93 c 0,274.91 222.94134,497.86 497.85534,497.86 z m 0,-162.497 c 185.184,0 335.363,-150.184 335.363,-335.363 0,-185.184 -150.179,-335.367 -335.363,-335.367 -185.183,0 -335.367,150.183 -335.367,335.367 0,185.179 150.184,335.363 335.367,335.363" />
        <path
           inkscape:connector-curvature="0"
           id="path5266"
           style="fill:none;stroke:#ffffff;stroke-width:28.3465004;stroke-linecap:butt;stroke-linejoin:miter;stroke-miterlimit:22.92560005;stroke-dasharray:none;stroke-opacity:1"
           d="M 4.85547,499.234 H 1009" />
        <path
           inkscape:connector-curvature="0"
           id="path5268"
           style="fill:none;stroke:#2154ac;stroke-width:6.72100019;stroke-linecap:butt;stroke-linejoin:miter;stroke-miterlimit:22.92560005;stroke-dasharray:none;stroke-opacity:1"
           d="M 502.402,714.32 204.07,565.355 l 17.551,-26.984 280.781,136.125 287.196,-136.125 14.847,26.984 z" />
        <path
           inkscape:connector-curvature="0"
           id="path5270"
           style="fill:#2154ac;fill-opacity:1;fill-rule:evenodd;stroke:none"
           d="m 510.703,620.793 c 1.106,1.383 2.766,6.363 0.828,6.922 -27.945,-0.559 -89.375,-46.211 -92.972,-97.402 -2.211,-31.543 21.582,-52.571 83.566,-43.165 40.953,6.086 86.605,38.184 94.91,76.09 5.809,26.844 -5.812,57.832 -51.191,58.664 -31.543,0.555 -65.856,-17.984 -71.668,-37.632 -0.551,-4.149 5.262,-5.258 8.578,-2.766 4.703,16.601 24.351,27.945 37.633,30.992 27.39,5.809 52.297,-4.43 59.488,-26.566 20.199,-61.981 -57.551,-90.481 -84.391,-89.098 -24.074,1.109 -58.382,1.66 -59.765,37.356 -2.492,58.937 66.957,91.312 74.984,86.605 z M 468.09,469.438 c 8.855,6.64 24.902,9.132 37.355,9.96 25.457,1.383 53.68,-5.531 80.243,-2.214 9.96,1.386 16.878,3.597 22.414,13.836 1.105,1.664 6.086,0.281 6.086,-1.657 -0.829,-10.238 -4.704,-18.543 -17.153,-23.523 -9.965,-4.149 -20.758,-3.871 -32.375,-2.488 -18.539,2.488 -38.465,6.918 -58.109,7.195 -10.789,0.273 -30.16,-3.043 -35.141,-5.813 -2.492,-1.66 -5.258,3.047 -3.32,4.704" />
        <path
           inkscape:connector-curvature="0"
           id="path5272"
           style="fill:#2154ac;fill-opacity:1;fill-rule:evenodd;stroke:none"
           d="m 675.063,404.969 c 0,7.746 -1.383,12.172 -5.809,14.664 -1.387,0 -8.305,0.555 -11.625,0.555 -2.492,0 -4.149,-1.665 -4.149,-4.153 v -24.074 c 6.637,0 15.774,0 17.708,1.941 3.32,2.489 3.875,4.981 3.875,11.067 z m 5.812,-47.039 -19.926,30.711 h -7.469 v -21.028 c 0,-2.769 0.833,-4.425 1.657,-5.258 0.832,-1.105 3.324,-1.66 6.644,-1.66 v -2.765 h -28.5 v 2.765 c 0.551,0 2.215,0 3.321,0 0.554,0.555 1.382,0.555 2.488,1.66 0.832,0.833 1.387,3.598 1.387,6.918 v 42.614 c 0,3.32 -0.555,5.254 -1.387,6.918 -1.106,0.828 -2.488,1.66 -5.809,1.66 v 2.765 h 29.883 c 6.641,0 13.281,-0.832 17.434,-2.492 3.597,-2.488 8.297,-5.254 10.238,-11.621 0.273,-0.828 0,-2.488 0,-4.148 0,-2.492 -1.109,-4.703 -2.766,-7.473 -1.664,-3.32 -6.922,-7.191 -12.73,-8.023 l 17.984,-25.457 c 0.278,-0.555 3.875,-3.043 5.531,-3.043 v -3.043 z m -57.004,20.75 -4.148,-21.028 h -54.235 v 4.149 c 1.66,0 3.321,0 4.426,0 0.555,0 1.383,0.832 2.492,0.832 0.555,0.828 1.383,2.765 1.383,6.086 v 43.168 c 0,3.32 0,5.254 -0.828,6.918 -0.555,0.828 -3.047,1.933 -7.473,1.933 v 2.492 h 53.403 v -19.367 h -1.661 c -1.656,8.852 -4.425,12.172 -10.234,13.832 -2.492,0.828 -6.644,1.387 -10.519,1.387 -2.489,0 -4.7,0 -5.809,-0.559 -1.105,-0.828 -1.938,-0.828 -1.938,-3.316 v -20.754 c 5.258,0 6.09,0.277 8.579,1.938 2.492,1.66 3.875,6.64 4.707,11.898 h 2.488 v -32.375 h -2.488 c 0,1.66 -0.278,3.047 -0.278,4.703 -0.832,1.11 -0.554,3.324 -1.386,4.149 -1.661,2.492 -2.766,3.875 -4.426,3.875 -3.043,1.386 -4.703,0.832 -7.196,1.105 V 366.23 c 0,-1.66 1.11,-2.769 1.938,-3.597 1.66,-0.832 3.875,-0.832 6.367,-0.832 14.383,0.277 19.363,5.535 24.348,16.879 z m -69.726,-8.301 c -6.918,-11.066 -15.497,-13.559 -26.29,-13.559 -3.316,0 -5.257,0.555 -9.406,1.383 -3.32,0.832 -10.793,3.598 -14.109,7.195 -2.492,2.493 -4.707,5.258 -6.645,9.407 -5.257,11.07 -4.98,24.629 3.047,37.082 2.488,4.148 5.531,5.808 9.129,8.851 4.43,3.598 14.391,4.43 19.371,4.43 3.317,0 5.531,0 9.961,-1.105 2.211,0 10.238,-6.368 12.727,0.828 l 2.492,-0.278 0.277,-21.859 h -2.492 c -2.488,5.258 -3.043,9.406 -7.195,12.73 -2.489,1.934 -5.532,3.321 -7.746,4.149 -1.938,0.832 -5.258,0.555 -6.918,0.555 -4.981,0 -11.899,-3.321 -14.664,-8.028 -9.411,-15.769 -6.918,-30.988 -0.555,-42.609 1.66,-2.77 4.152,-4.707 6.641,-6.09 2.769,-1.66 4.98,-1.934 7.472,-1.934 2.488,0 4.149,0 6.641,0.828 1.656,0 4.426,1.106 5.808,2.77 4.43,1.656 7.75,5.254 9.133,7.746 z m -63.364,50.359 c -1.66,0 -4.98,-1.105 -5.812,-1.933 -1.66,-0.832 -1.938,-3.047 -3.321,-6.09 L 457.574,357.93 h -2.488 l -22.414,53.125 c -1.938,3.875 -2.492,6.918 -4.149,7.75 0,0 -0.832,0.828 -1.66,0.828 -0.832,1.105 -1.664,1.105 -3.32,1.105 v 2.492 h 27.668 v -2.492 h -0.277 c -0.832,0 -1.661,0 -1.661,0 -1.105,0 -3.593,-0.55 -4.152,-1.933 v -0.832 c 0,-0.832 0,-0.832 0,-0.832 0,-1.934 0.832,-2.489 0.832,-2.489 0,-1.109 0.551,-1.937 0.832,-2.765 l 13.836,-32.375 15.492,33.203 c 0.278,0.828 0.555,1.937 0.555,2.769 0,0.829 0,0.829 0,1.657 0,2.769 -1.66,3.597 -6.641,3.597 v 2.492 h 20.754 z m -90.484,-36.797 -8.578,19.922 -9.129,-19.922 z m 0,-25.738 v 2.77 c 2.492,0 3.047,0 3.875,0 1.66,0.828 2.488,1.937 2.488,3.597 0,0.828 0.832,1.66 0.281,3.043 l -4.707,11.067 h -21.582 l -4.703,-10.512 -1.109,-2.77 c 0,-2.488 3.598,-4.425 7.75,-4.425 v -3.043 h -20.199 v 3.043 c 1.656,0 3.597,1.105 4.98,2.765 2.488,2.492 0.832,0.555 4.149,7.75 l 23.796,52.575 h 2.489 l 21.586,-52.024 c 1.105,-3.043 3.043,-5.258 4.152,-8.023 1.105,-2.489 5.254,-1.938 5.254,-2.766 v -3.047 z m -42.055,48.426 h -2.769 c -0.828,5.258 -1.383,5.258 -3.598,8.301 -1.105,1.383 -3.043,2.488 -5.535,3.32 -3.043,0.555 -5.809,0.273 -9.129,0.273 v -50.355 c 0,-3.598 0.551,-3.875 2.488,-5.813 0.555,-0.828 3.043,-1.382 6.367,-1.382 l -0.277,-3.321 h -31.824 v 3.321 c 4.152,0 5.812,0 6.644,1.66 1.661,0.828 1.661,3.043 1.661,6.363 v 49.527 c -2.493,0 -5.536,0.282 -7.196,0 -3.875,-0.55 -5.812,-1.656 -7.472,-2.488 -2.489,-2.765 -3.043,-3.32 -3.872,-9.406 h -2.492 v 16.601 h 57.004 z m 403.981,0 h -2.766 c -0.832,5.258 -1.383,5.258 -3.598,8.301 -1.109,1.383 -3.043,2.488 -5.535,3.32 -3.043,0.555 -5.808,0.273 -9.133,0.273 v -50.355 c 0,-3.598 0.559,-3.875 2.493,-5.813 0.554,-0.828 3.046,-1.382 6.363,-1.382 l -0.277,-3.321 h -31.817 v 3.321 c 4.149,0 5.809,0 6.641,1.66 1.656,0.828 1.656,3.043 1.656,6.363 v 49.527 c -2.488,0 -5.531,0.282 -7.191,0 -3.875,-0.55 -5.813,-1.656 -7.473,-2.488 -2.488,-2.765 -3.043,-3.32 -3.875,-9.406 h -2.488 v 16.601 h 57 z m -471.778,-30.16 c 0,-2.492 -1.105,-5.258 -2.211,-8.028 -0.832,-2.488 -2.214,-4.148 -4.152,-6.086 -2.488,-1.66 -3.875,-3.32 -6.641,-4.152 -2.488,-0.828 -4.703,-1.383 -8.023,-1.383 -0.828,0 -1.66,0 -2.488,0 v 0 c -2.492,0 -3.321,0.278 -4.981,0.278 -1.664,0 -4.707,2.215 -6.09,3.047 -2.488,1.382 -4.148,0.828 -4.148,0.828 -1.66,0 -3.047,-3.321 -3.875,-4.153 h -2.492 v 22.692 h 2.492 c 0.828,-5.258 2.769,-7.196 5.258,-12.453 1.66,-1.661 4.98,-3.871 6.64,-4.704 2.493,-1.937 5.809,-1.937 9.129,-1.937 0.832,0 2.492,0 3.325,1.109 1.656,0 3.871,1.383 5.531,3.043 1.66,1.66 1.937,3.598 1.937,7.196 0,3.32 -2.215,6.914 -6.363,9.129 l -9.684,4.703 c -14.113,6.918 -16.05,11.343 -17.433,19.371 -0.555,3.32 0.832,6.086 1.66,8.574 1.66,2.77 3.32,5.539 4.98,7.195 4.153,2.766 8.301,4.43 13.559,4.43 1.383,0 2.215,0 3.871,0 0.832,-0.832 2.492,-1.105 4.43,-1.664 l 6.64,-1.934 c 1.383,0 3.321,0.828 3.321,2.493 h 2.492 v -21.032 h -2.492 c -0.832,4.426 -2.766,8.856 -6.086,12.176 -3.047,4.426 -7.196,6.086 -12.176,6.086 -3.32,0 -5.258,-0.555 -6.918,-2.488 -0.828,-0.832 -1.66,-1.664 -2.488,-2.492 0,-1.661 -0.832,-2.77 -0.832,-4.426 0,-1.66 0.832,-3.598 1.66,-5.258 1.66,-1.66 4.152,-3.875 6.086,-4.707 l 9.41,-4.149 c 3.875,-1.66 6.641,-3.32 9.129,-5.257 1.66,-0.828 1.383,-1.661 2.215,-2.489 0.551,-1.664 1.66,-2.492 3.043,-4.429 0.832,-2.489 2.765,-5.532 2.765,-9.129" />
        <path
           inkscape:connector-curvature="0"
           id="path5274"
           style="fill:#ffffff;fill-opacity:1;fill-rule:nonzero;stroke:none"
           d="m 87.7891,662.105 c 2.75,9.094 7.8867,15.481 15.3789,19.184 7.504,3.684 15.434,4.094 23.801,1.215 7.148,-2.465 12.715,-6.711 16.707,-12.766 5.293,-8.027 6.203,-17.093 2.719,-27.207 -3.485,-10.125 -9.618,-16.789 -18.411,-19.965 -6.933,-2.5 -14.129,-2.48 -21.578,0.086 -8.3669,2.879 -14.363,8.133 -17.9763,15.739 -3.625,7.625 -3.8438,15.523 -0.6406,23.714 z m 2.8281,-0.402 c -1.7774,-5.16 -0.4844,-9.984 3.8476,-14.488 3.5625,-3.672 9.3982,-6.902 17.4802,-9.684 9.618,-3.312 17.305,-4.07 23.059,-2.277 4.031,1.246 6.769,3.996 8.23,8.238 0.981,2.852 1.106,5.473 0.391,7.863 -0.937,3.032 -3.121,5.911 -6.551,8.618 -3.418,2.699 -8.261,5.125 -14.515,7.281 -7.461,2.566 -13.27,3.789 -17.438,3.672 -4.18,-0.117 -7.3944,-0.977 -9.6679,-2.602 -2.2578,-1.621 -3.8711,-3.824 -4.8359,-6.621 z m 53.6878,50.113 15.976,-9.222 c 2.637,-1.524 4.371,-2.332 5.199,-2.434 0.836,-0.082 1.735,0.164 2.719,0.723 1,0.562 1.906,1.562 2.739,3.008 l 0.992,1.714 1.402,-0.812 -15.578,-26.98 -1.406,0.812 0.992,1.711 c 0.863,1.496 1.289,2.859 1.281,4.074 0.031,0.867 -0.289,1.727 -0.957,2.578 -0.43,0.633 -1.949,1.7 -4.543,3.2 l -33.941,19.593 c -2.641,1.528 -4.371,2.332 -5.203,2.43 -0.817,0.109 -1.719,-0.129 -2.7,-0.688 -0.98,-0.562 -1.894,-1.574 -2.73,-3.015 l -0.988,-1.715 -1.418,0.816 15.578,26.981 1.418,-0.817 -0.992,-1.714 c -0.86,-1.493 -1.301,-2.856 -1.293,-4.071 -0.02,-0.871 0.281,-1.738 0.933,-2.617 0.445,-0.637 1.969,-1.687 4.555,-3.183 l 14.613,-8.434 10.524,18.223 -14.614,8.437 c -2.64,1.524 -4.371,2.336 -5.191,2.445 -0.828,0.094 -1.731,-0.148 -2.719,-0.718 -0.996,-0.586 -1.902,-1.586 -2.742,-3.043 l -0.969,-1.676 -1.414,0.82 15.563,26.953 1.414,-0.816 -0.969,-1.676 c -0.875,-1.519 -1.313,-2.879 -1.297,-4.082 -0.012,-0.859 0.281,-1.723 0.934,-2.617 0.453,-0.625 1.965,-1.691 4.55,-3.188 l 33.946,-19.593 c 2.636,-1.524 4.367,-2.332 5.187,-2.442 0.828,-0.097 1.731,0.145 2.719,0.719 1.008,0.578 1.914,1.578 2.754,3.031 l 0.969,1.68 1.406,-0.813 -15.563,-26.953 -1.406,0.809 0.965,1.676 c 0.879,1.519 1.305,2.883 1.289,4.09 0.027,0.847 -0.285,1.722 -0.93,2.617 -0.441,0.617 -1.957,1.679 -4.554,3.179 l -15.977,9.227 z m 61.113,70.348 -19.027,37.988 15.91,18.305 1.234,-1.074 -1.269,-1.461 c -1.153,-1.324 -1.848,-2.582 -2.075,-3.781 -0.168,-0.828 -0.031,-1.723 0.403,-2.692 0.324,-0.699 1.597,-2.023 3.828,-3.965 l 29.648,-25.773 c 2.297,-2 3.844,-3.125 4.629,-3.387 0.793,-0.254 1.723,-0.187 2.805,0.188 1.098,0.375 2.18,1.183 3.281,2.449 l 1.27,1.461 1.222,-1.063 -20.418,-23.492 -1.222,1.067 1.269,1.461 c 1.16,1.335 1.836,2.593 2.071,3.8 0.168,0.809 0.031,1.723 -0.446,2.715 -0.308,0.688 -1.597,2.024 -3.859,3.988 l -33.328,28.973 26.039,-52.902 -0.703,-0.809 -55.953,17.899 31.675,-27.539 c 2.207,-1.918 3.629,-3.047 4.235,-3.379 1.343,-0.672 2.801,-0.825 4.328,-0.465 1.539,0.355 3.199,1.554 4.988,3.617 l 1.223,-1.063 -13.383,-15.398 -1.223,1.066 0.403,0.461 c 0.89,0.977 1.527,2.051 1.937,3.207 0.406,1.157 0.516,2.219 0.328,3.149 -0.191,0.945 -0.711,1.992 -1.523,3.137 -0.211,0.261 -1.313,1.257 -3.328,3.011 l -28.461,24.739 c -2.274,1.976 -3.797,3.082 -4.571,3.339 -0.781,0.243 -1.71,0.176 -2.789,-0.199 -1.093,-0.383 -2.183,-1.203 -3.273,-2.457 l -1.242,-1.426 -1.235,1.071 15.973,18.375 z m 40.93,90.461 12.613,-15.344 -1.43,-1.121 c -3.726,3.41 -7.836,5.281 -12.332,5.629 -4.492,0.34 -8.25,-0.676 -11.297,-3.059 -2.351,-1.835 -3.73,-3.921 -4.117,-6.257 -0.402,-2.332 0.051,-4.325 1.332,-5.969 0.805,-1.024 1.781,-1.766 2.891,-2.191 1.515,-0.571 3.43,-0.805 5.726,-0.7 1.692,0.078 5.25,0.688 10.688,1.817 7.609,1.586 13.305,1.925 17.098,1.023 3.777,-0.918 6.863,-2.918 9.285,-6.015 3.062,-3.926 4.168,-8.504 3.328,-13.715 -0.856,-5.215 -3.637,-9.668 -8.34,-13.344 -1.48,-1.16 -3.004,-2.106 -4.547,-2.832 -1.551,-0.719 -3.652,-1.445 -6.285,-2.168 -1.473,-0.406 -2.555,-0.891 -3.266,-1.449 -0.601,-0.469 -1.062,-1.192 -1.367,-2.172 -0.308,-0.988 -0.301,-2.121 0.024,-3.391 l -1.274,-0.996 -13.855,17.731 1.277,0.996 c 4.91,-4.192 9.828,-6.465 14.785,-6.817 4.945,-0.359 9.094,0.766 12.438,3.379 2.59,2.02 4.09,4.34 4.527,6.945 0.438,2.606 -0.078,4.852 -1.535,6.719 -0.867,1.114 -2.004,1.953 -3.41,2.535 -1.395,0.563 -3.055,0.864 -4.989,0.856 -1.937,-0.004 -5.003,-0.438 -9.226,-1.324 -5.914,-1.227 -10.379,-1.844 -13.402,-1.828 -3.028,0.007 -5.758,0.546 -8.18,1.582 -2.43,1.039 -4.512,2.648 -6.227,4.847 -2.918,3.735 -4.027,8.008 -3.347,12.785 0.707,4.774 3.148,8.793 7.316,12.051 1.527,1.195 3.141,2.172 4.859,2.922 1.309,0.57 3.028,1.09 5.172,1.547 2.141,0.473 3.535,0.953 4.145,1.433 0.605,0.473 0.933,1.028 0.988,1.661 0.066,0.644 -0.305,1.781 -1.109,3.418 z m 88.222,50.727 9.371,-18.391 -1.519,-0.777 c -3.598,4.211 -7.609,6.8 -12.055,7.765 -4.429,0.957 -8.637,0.43 -12.609,-1.594 -3.313,-1.687 -5.863,-4.179 -7.656,-7.503 -1.793,-3.321 -2.555,-6.84 -2.254,-10.575 0.363,-4.781 1.769,-9.586 4.226,-14.41 2.418,-4.746 5.227,-8.769 8.418,-12.062 3.192,-3.289 6.567,-5.289 10.149,-5.973 3.574,-0.703 7.39,-0.004 11.468,2.07 3.34,1.703 6.036,3.989 8.067,6.875 2.035,2.871 3.683,6.875 4.945,12.032 l 2.336,-4.586 c -1.398,-4.621 -3.348,-8.457 -5.859,-11.489 -2.524,-3.05 -5.922,-5.66 -10.239,-7.859 -5.656,-2.883 -11.273,-4.312 -16.828,-4.281 -5.554,0.031 -10.609,1.566 -15.172,4.594 -4.55,3.05 -8.062,6.968 -10.504,11.769 -2.582,5.063 -3.703,10.535 -3.359,16.434 0.332,5.898 2.102,11.242 5.332,16.035 3.223,4.808 7.375,8.488 12.442,11.07 3.73,1.899 8.078,3.106 13.058,3.606 2.883,0.293 4.652,0.586 5.305,0.918 0.828,0.421 1.398,1.101 1.699,2.027 0.301,0.93 0.203,2.109 -0.281,3.527 z m 41.993,8.714 6.281,-23.429 1.144,0.308 c 3.653,0.977 5.981,2.828 7.02,5.563 1.023,2.726 1.156,6.398 0.426,10.984 l 1.609,0.43 8.07,-30.137 -1.605,-0.43 c -1.227,3.196 -2.656,5.688 -4.305,7.497 -1.664,1.804 -3.305,2.871 -4.945,3.211 -1.625,0.32 -3.824,0.121 -6.563,-0.614 l 4.348,-16.211 c 0.848,-3.172 1.496,-5.066 1.961,-5.699 0.449,-0.641 1.113,-1.086 1.973,-1.336 0.847,-0.269 2.093,-0.172 3.746,0.27 l 3.433,0.922 c 5.375,1.441 9.344,3.839 11.922,7.199 2.582,3.351 3.883,7.769 3.938,13.25 l 1.566,0.418 2.324,-18.989 -49.758,-13.335 -0.418,1.566 1.915,0.516 c 1.664,0.445 2.929,1.109 3.785,1.976 0.633,0.586 1.015,1.418 1.148,2.496 0.137,0.75 -0.18,2.574 -0.957,5.473 l -10.144,37.855 c -0.696,2.614 -1.196,4.188 -1.5,4.743 -0.539,0.91 -1.282,1.535 -2.18,1.871 -1.297,0.504 -2.867,0.504 -4.734,0.004 l -1.915,-0.512 -0.421,1.578 48.171,12.91 4.567,-17.027 -1.61,-0.43 c -1.941,3.938 -3.886,6.617 -5.859,8.023 -1.965,1.418 -4.422,2.192 -7.375,2.301 -1.719,0.098 -4.758,-0.453 -9.117,-1.621 z m 68.597,-14.515 2.039,-16.59 c 0.391,-3.195 0.832,-5.184 1.317,-5.953 0.504,-0.785 1.273,-1.371 2.316,-1.742 1.059,-0.371 2.938,-0.395 5.645,-0.063 l 0.195,-1.609 -30.281,-3.715 -0.2,1.605 c 2.743,0.336 4.555,0.813 5.477,1.457 0.902,0.625 1.508,1.364 1.812,2.231 0.286,0.871 0.235,2.891 -0.16,6.086 l -4.711,38.383 c -0.394,3.203 -0.836,5.187 -1.324,5.976 -0.504,0.781 -1.269,1.356 -2.328,1.723 -1.043,0.383 -2.918,0.394 -5.629,0.062 l -0.203,1.625 27.488,3.375 c 7.16,0.879 12.45,1.012 15.887,0.442 3.426,-0.582 6.359,-2.074 8.785,-4.485 2.414,-2.394 3.852,-5.39 4.293,-8.964 0.535,-4.364 -0.601,-8.161 -3.39,-11.403 -1.79,-2.051 -4.422,-3.746 -7.915,-5.082 l 16.676,-18.281 c 2.18,-2.359 3.703,-3.809 4.555,-4.352 1.32,-0.757 2.746,-1.082 4.336,-0.976 l 0.199,-1.613 -18.629,-2.282 -22.363,24.621 z m -3.562,29 3.183,-25.906 2.485,0.308 c 4.035,0.496 7.011,1.223 8.933,2.211 1.918,0.992 3.332,2.527 4.239,4.602 0.906,2.078 1.183,4.664 0.8,7.777 -0.554,4.512 -2.023,7.699 -4.398,9.602 -2.363,1.898 -5.891,2.554 -10.582,1.98 z m 102.777,6.918 -0.285,-16.137 -1.57,0.027 c -0.879,3.75 -1.872,6.442 -2.981,8.079 -1.113,1.656 -2.664,2.972 -4.644,3.964 -1.098,0.559 -3.043,0.848 -5.817,0.899 l -4.441,0.078 -0.801,-45.957 c -0.055,-3.043 0.078,-4.949 0.394,-5.723 0.333,-0.769 0.981,-1.437 1.942,-2.027 0.984,-0.602 2.316,-0.91 4.012,-0.938 l 1.976,-0.035 -0.027,-1.621 -31.199,0.547 0.027,1.617 1.984,-0.035 c 1.723,-0.027 3.125,0.262 4.184,0.859 0.773,0.391 1.387,1.082 1.84,2.082 0.34,0.684 0.535,2.524 0.59,5.524 l 0.804,45.957 -4.32,0.074 c -4.008,0.07 -6.945,-0.719 -8.789,-2.398 -2.594,-2.325 -4.258,-5.688 -5.008,-10.071 l -1.668,0.032 0.285,16.136 z m 34.961,-64.524 -0.285,-1.593 -30.684,5.41 0.285,1.593 1.95,-0.339 c 1.699,-0.301 3.128,-0.235 4.269,0.187 0.82,0.266 1.52,0.86 2.094,1.777 0.445,0.625 0.926,2.415 1.445,5.368 l 6.809,38.597 c 0.527,3 0.695,4.907 0.508,5.715 -0.18,0.805 -0.704,1.57 -1.575,2.305 -0.863,0.73 -2.129,1.242 -3.765,1.531 l -1.953,0.344 0.285,1.609 30.679,-5.406 -0.281,-1.613 -1.949,0.343 c -1.699,0.297 -3.125,0.247 -4.266,-0.179 -0.828,-0.278 -1.539,-0.852 -2.14,-1.766 -0.434,-0.64 -0.918,-2.43 -1.438,-5.371 l -6.804,-38.598 c -0.528,-3 -0.696,-4.906 -0.5,-5.714 0.203,-0.813 0.738,-1.579 1.601,-2.309 0.871,-0.746 2.121,-1.254 3.762,-1.543 z m 39.812,46.571 -6.332,-23.645 1.664,-0.445 c 2.54,-0.68 4.731,-0.848 6.54,-0.528 1.828,0.336 3.535,1.258 5.136,2.77 1.602,1.512 2.996,3.766 4.157,6.762 l 1.476,-0.395 -7.746,-28.906 -1.473,0.398 c 0.926,5.602 0.422,9.586 -1.5,11.969 -1.925,2.379 -4.402,3.988 -7.425,4.801 l -1.668,0.445 -4.723,-17.621 c -0.785,-2.937 -1.106,-4.824 -0.984,-5.652 0.136,-0.824 0.601,-1.633 1.394,-2.438 0.789,-0.816 2.008,-1.437 3.617,-1.867 l 1.91,-0.512 -0.418,-1.566 -30.093,8.062 0.418,1.567 1.914,-0.512 c 1.664,-0.449 3.097,-0.504 4.269,-0.18 0.844,0.188 1.59,0.719 2.242,1.586 0.5,0.582 1.118,2.325 1.895,5.223 l 10.145,37.859 c 0.789,2.942 1.14,4.821 1.015,5.645 -0.105,0.816 -0.574,1.629 -1.367,2.43 -0.809,0.804 -2.012,1.425 -3.617,1.855 l -1.914,0.512 0.422,1.582 48.554,-13.012 -4.426,-16.515 -1.738,0.464 c 0.649,3.989 0.403,7.129 -0.719,9.434 -1.136,2.305 -3.132,4.238 -6.015,5.836 -1.582,0.875 -4.668,1.933 -9.246,3.16 z m 46.098,-74.34 -0.582,-1.512 -29.086,11.164 0.582,1.512 1.848,-0.707 c 1.609,-0.617 3.027,-0.824 4.226,-0.629 0.856,0.105 1.661,0.551 2.395,1.348 0.559,0.523 1.371,2.187 2.445,4.988 l 14.047,36.59 c 1.094,2.847 1.621,4.683 1.59,5.515 -0.02,0.828 -0.391,1.672 -1.106,2.559 -0.71,0.883 -1.851,1.625 -3.406,2.226 l -1.851,0.708 0.59,1.527 29.085,-11.164 -0.589,-1.528 -1.848,0.711 c -1.609,0.618 -3.02,0.836 -4.219,0.641 -0.867,-0.121 -1.672,-0.547 -2.437,-1.332 -0.547,-0.547 -1.364,-2.207 -2.434,-4.996 l -14.047,-36.594 c -1.09,-2.84 -1.621,-4.676 -1.582,-5.508 0.043,-0.84 0.426,-1.691 1.129,-2.574 0.715,-0.898 1.848,-1.641 3.399,-2.234 z m 51.59,11.691 5.609,-33.101 c 0.809,-4.668 1.828,-8.098 3.051,-10.282 0.91,-1.57 2.109,-2.781 3.617,-3.621 l -0.785,-1.418 -27.129,15.039 0.785,1.422 c 1.805,-0.797 3.059,-1.133 3.77,-1.027 0.723,0.094 1.234,0.43 1.547,0.992 0.594,1.078 0.543,3.762 -0.176,8.035 l -3.617,21.66 -2.82,-0.543 -7.887,-14.222 c -1.508,-2.715 -2.289,-4.492 -2.344,-5.34 -0.066,-0.832 0.207,-1.723 0.816,-2.676 0.61,-0.972 1.872,-1.98 3.797,-3.047 l -0.785,-1.422 -26.293,14.575 0.785,1.418 1.735,-0.961 c 1.508,-0.836 2.883,-1.235 4.097,-1.207 0.864,-0.02 1.719,0.316 2.559,1 0.625,0.441 1.648,1.984 3.102,4.609 l 19,34.277 c 1.48,2.664 2.273,4.403 2.355,5.235 0.094,0.816 -0.164,1.715 -0.738,2.687 -0.59,0.977 -1.606,1.867 -3.063,2.676 l -1.734,0.961 0.793,1.43 25.937,-14.379 -0.789,-1.43 c -1.758,0.977 -3.25,1.473 -4.449,1.473 -0.871,0 -1.734,-0.309 -2.582,-0.938 -0.668,-0.469 -1.734,-2.023 -3.195,-4.66 l -8.989,-16.215 28.004,4.918 c 3.899,0.688 6.219,1.684 6.938,2.985 0.543,0.984 0.414,2.05 -0.375,3.226 -0.406,0.598 -1.715,1.547 -3.899,2.859 l 0.793,1.434 20.336,-11.269 -0.797,-1.434 c -1.894,0.879 -3.484,1.352 -4.812,1.398 -1.344,0.059 -4.719,-0.402 -10.129,-1.347 z m 75.852,-25.148 c 7.503,-5.824 11.628,-12.91 12.398,-21.231 0.75,-8.328 -1.711,-15.875 -7.395,-22.656 -4.863,-5.789 -10.824,-9.465 -17.906,-11.019 -9.39,-2.067 -18.183,0.332 -26.375,7.207 -8.203,6.886 -12.226,15 -12.043,24.343 0.153,7.371 2.75,14.082 7.813,20.117 5.687,6.778 12.742,10.489 21.14,11.141 8.418,0.652 15.868,-1.976 22.368,-7.902 z m -1.391,-2.496 c -4.184,3.511 -9.145,4.031 -14.906,1.601 -4.703,-2.008 -9.809,-6.301 -15.305,-12.847 -6.535,-7.793 -10,-14.696 -10.387,-20.715 -0.281,-4.203 1.305,-7.75 4.742,-10.633 2.309,-1.938 4.711,-2.996 7.2,-3.184 3.168,-0.211 6.636,0.793 10.39,3.028 3.746,2.222 7.75,5.875 12,10.941 5.074,6.047 8.297,11.031 9.68,14.965 1.391,3.945 1.738,7.254 1.035,9.961 -0.703,2.687 -2.183,4.98 -4.449,6.883 z m 76.367,-78.731 -1.269,-1.031 c -1.633,1.461 -3.747,2.242 -6.34,2.32 -1.914,0.032 -5.739,-0.711 -11.485,-2.234 l -48.304,-12.695 -0.911,1.121 23.954,45.699 c 2.89,5.508 4.464,8.902 4.714,10.168 0.254,1.285 -0.25,2.906 -1.503,4.859 l 1.269,1.031 17.973,-22.191 -1.274,-1.035 -0.601,0.75 c -1.625,2.004 -2.973,3.168 -4.067,3.496 -0.765,0.25 -1.476,0.105 -2.14,-0.434 -0.403,-0.328 -0.821,-0.824 -1.239,-1.449 -0.394,-0.629 -1.398,-2.465 -2.996,-5.476 l -15.05,-28.536 27.925,7.461 c 3.371,0.918 5.59,1.59 6.621,2.028 1.051,0.422 1.868,0.89 2.461,1.371 0.676,0.547 1.141,1.215 1.364,2.012 0.234,0.785 0.195,1.644 -0.106,2.558 -0.394,1.297 -1.265,2.758 -2.57,4.367 l 1.273,1.028 z m -12.523,-62.961 -10.524,18.223 -6.277,-0.731 c -2.09,-0.253 -3.672,-0.695 -4.762,-1.324 -1.457,-0.844 -2.183,-2.043 -2.18,-3.601 -0.027,-0.914 0.649,-2.778 1.993,-5.586 l -1.403,-0.809 -9.906,17.156 1.402,0.813 c 1.352,-1.68 3.004,-2.77 4.942,-3.223 1.937,-0.476 5.39,-0.457 10.332,0.074 l 51.84,5.317 0.422,-0.727 -31.586,-43.039 c -2.989,-4.097 -4.664,-7.004 -5.047,-8.75 -0.289,-1.328 -0.039,-2.812 0.738,-4.457 l -1.402,-0.812 -14.414,24.968 1.402,0.813 0.594,-1.027 c 1.156,-2.004 2.254,-3.254 3.277,-3.739 0.731,-0.32 1.477,-0.269 2.242,0.172 0.457,0.262 0.879,0.61 1.27,1.043 0.207,0.188 0.937,1.11 2.203,2.793 z m 2.07,2.926 13.336,17.941 -22.348,-2.339 z m 56.57,21.441 -20.468,4.981 -1.891,3.273 15.746,3.2 z m 4.188,-58.015 -25.379,-39.828 24.226,8.343 c 3.375,1.161 5.497,2.43 6.352,3.805 1.145,1.883 1.156,4.379 0.023,7.492 l 1.543,0.535 6.411,-18.609 -1.547,-0.535 c -1.118,2.281 -2.063,3.734 -2.828,4.391 -0.766,0.66 -1.778,1.023 -3.028,1.097 -1.25,0.082 -3.211,-0.344 -5.867,-1.254 l -46.914,-16.16 -0.488,1.422 33.797,54.25 -35.825,-12.336 c -3.234,-1.113 -5.164,-2.605 -5.785,-4.484 -0.64,-1.871 -0.621,-3.766 0.035,-5.664 l 0.457,-1.336 -1.531,-0.528 -6.879,19.985 1.528,0.527 c 1.097,-3.098 2.48,-5.035 4.148,-5.824 1.668,-0.789 3.992,-0.672 6.984,0.359 l 39.766,13.696 1.086,1.722 c 1.082,1.703 1.699,3.09 1.863,4.176 0.156,1.07 -0.043,2.477 -0.574,4.211 l 1.543,0.531 6.883,-19.984" />
        <path
           inkscape:connector-curvature="0"
           id="path5276"
           style="fill:#ffffff;fill-opacity:1;fill-rule:nonzero;stroke:none"
           d="m 177.453,320.66 -24.941,-11.633 -0.961,2.067 c 5.777,4.597 9.41,9.82 10.906,15.703 1.484,5.855 0.977,11.488 -1.535,16.871 -2.098,4.496 -5.301,8.008 -9.645,10.555 -4.339,2.543 -8.996,3.726 -13.984,3.492 -6.387,-0.262 -12.859,-1.91 -19.402,-4.961 -6.434,-3 -11.926,-6.555 -16.461,-10.652 C 96.8984,338 94.0781,333.594 93,328.855 c -1.1055,-4.73 -0.3516,-9.851 2.2266,-15.378 2.1132,-4.536 5.0274,-8.227 8.7814,-11.067 3.73,-2.851 8.992,-5.23 15.801,-7.152 l -6.215,-2.899 c -6.09,2.082 -11.117,4.856 -15.0393,8.348 -3.9492,3.496 -7.2656,8.152 -9.9922,14.008 -3.5781,7.664 -5.2227,15.215 -4.9258,22.617 0.3047,7.402 2.5781,14.07 6.8281,20 4.2774,5.922 9.6602,10.418 16.1682,13.453 6.871,3.203 14.219,4.445 22.062,3.711 7.836,-0.715 14.879,-3.324 21.114,-7.851 6.257,-4.52 10.968,-10.223 14.171,-17.094 2.36,-5.055 3.766,-10.91 4.2,-17.571 0.258,-3.851 0.566,-6.222 0.98,-7.113 0.524,-1.121 1.395,-1.906 2.617,-2.355 1.227,-0.446 2.801,-0.367 4.711,0.215 z m -13.48,36.723 15.289,20.172 1.875,-4.028 -5.035,-17.793 16.695,-8.058 2.027,-4.356 -25.254,2.063 z m 46.894,-83.903 -21.031,-16.097 -1.426,1.957 c 4.711,4.808 7.399,10.195 8.078,16.176 0.657,5.964 -0.519,11.019 -3.554,15.195 -2.34,3.219 -5.051,5.152 -8.149,5.769 -3.086,0.653 -5.758,0.141 -8.012,-1.492 -1.406,-1.023 -2.437,-2.289 -3.058,-3.754 -0.824,-1.984 -1.231,-4.527 -1.199,-7.597 0.027,-2.254 0.675,-7.028 1.922,-14.321 1.765,-10.218 1.949,-17.824 0.57,-22.832 -1.395,-4.988 -4.207,-9.011 -8.445,-12.093 -5.372,-3.903 -11.528,-5.161 -18.43,-3.793 -6.91,1.379 -12.719,5.293 -17.399,11.73 -1.468,2.024 -2.656,4.102 -3.558,6.192 -0.883,2.101 -1.754,4.933 -2.594,8.472 -0.477,1.981 -1.074,3.449 -1.777,4.418 -0.602,0.828 -1.543,1.481 -2.832,1.926 -1.301,0.461 -2.813,0.504 -4.52,0.129 l -1.269,1.75 24.269,17.629 1.27,-1.746 c -5.817,-6.352 -9.071,-12.793 -9.766,-19.387 -0.719,-6.57 0.59,-12.152 3.918,-16.731 2.574,-3.542 5.59,-5.652 9.047,-6.355 3.453,-0.703 6.465,-0.125 9.023,1.734 1.52,1.106 2.696,2.579 3.532,4.426 0.82,1.828 1.3,4.031 1.378,6.61 0.079,2.578 -0.359,6.687 -1.335,12.351 -1.364,7.938 -1.977,13.918 -1.813,17.942 0.152,4.042 0.996,7.648 2.488,10.835 1.493,3.184 3.739,5.879 6.746,8.063 5.114,3.719 10.86,5 17.192,3.863 6.336,-1.16 11.574,-4.597 15.722,-10.308 1.516,-2.086 2.747,-4.282 3.665,-6.606 0.695,-1.769 1.316,-4.09 1.82,-6.961 0.531,-2.879 1.105,-4.758 1.719,-5.597 0.597,-0.825 1.324,-1.286 2.171,-1.391 0.856,-0.121 2.383,0.324 4.602,1.316 z m 22.336,-28.035 -4.941,-62.773 23.301,24.984 c 3.246,3.481 4.941,6.297 5.093,8.457 0.168,2.934 -1.379,5.879 -4.668,8.832 l 1.489,1.598 19.191,-17.895 -1.488,-1.597 c -2.742,1.984 -4.766,3.105 -6.075,3.398 -1.312,0.293 -2.734,0.09 -4.253,-0.597 -1.516,-0.696 -3.567,-2.422 -6.114,-5.157 l -45.125,-48.386 -1.461,1.367 5.832,85.023 -34.457,-36.953 c -3.105,-3.332 -4.449,-6.293 -4.004,-8.894 0.418,-2.606 1.625,-4.825 3.586,-6.657 l 1.375,-1.281 -1.472,-1.578 -20.61,19.219 1.473,1.578 c 3.23,-2.957 6.07,-4.371 8.527,-4.258 2.457,0.113 5.118,1.707 7.996,4.793 l 38.247,41.016 0.207,2.707 c 0.199,2.683 0.062,4.703 -0.43,6.086 -0.484,1.355 -1.602,2.886 -3.317,4.593 l 1.493,1.598 z m 101.762,-73.386 c 11.496,-5.321 18.976,-13.286 22.473,-23.864 3.468,-10.593 2.539,-21.14 -2.817,-31.652 -4.574,-8.984 -11.219,-15.543 -19.949,-19.6914 -11.582,-5.5 -23.727,-5.0157 -36.43,1.457 -12.722,6.4884 -20.383,15.8164 -22.945,28.0114 -2.012,9.621 -0.652,19.121 4.113,28.477 5.36,10.512 13.406,17.453 24.121,20.82 10.742,3.367 21.207,2.188 31.434,-3.558 z m -1.059,-3.664 c -6.488,3.304 -13.093,2.5 -19.847,-2.387 -5.508,-4.02 -10.852,-11.125 -16.028,-21.285 -6.156,-12.082 -8.586,-22.086 -7.285,-30.024 0.895,-5.554 4.02,-9.679 9.348,-12.394 3.582,-1.828 7.023,-2.4808 10.304,-1.973 4.188,0.672 8.391,3.02 12.598,7.051 4.199,4.008 8.305,9.953 12.305,17.808 4.777,9.375 7.472,16.825 8.09,22.348 0.621,5.543 0.086,9.945 -1.645,13.25 -1.723,3.277 -4.328,5.816 -7.84,7.606 z m 56.199,-64.54 -5.113,-24.0581 c -0.844,-3.9766 -1.156,-6.5039 -0.937,-7.5938 0.234,-1.0937 0.914,-2.1367 2.023,-3.1484 1.133,-1.0391 2.774,-1.7774 4.945,-2.2383 l 2.582,-0.5469 -0.449,-2.1132 -40.629,8.6367 0.446,2.1133 2.582,-0.5508 c 2.254,-0.4766 4.156,-0.4532 5.699,0.0547 1.109,0.3164 2.07,1.0781 2.871,2.2734 0.625,0.8125 1.348,3.1719 2.184,7.0859 l 10.863,51.1135 c 0.848,3.972 1.156,6.5 0.941,7.594 -0.199,1.086 -0.879,2.125 -1.992,3.14 -1.113,1.012 -2.777,1.754 -4.949,2.215 l -2.578,0.547 0.453,2.141 40.633,-8.641 -0.457,-2.133 -2.582,0.547 c -2.246,0.48 -4.153,0.477 -5.692,-0.035 -1.113,-0.332 -2.09,-1.07 -2.933,-2.262 -0.625,-0.824 -1.332,-3.191 -2.161,-7.082 l -4.679,-22.008 27.449,-5.836 4.676,22.008 c 0.844,3.973 1.156,6.5 0.957,7.586 -0.215,1.094 -0.891,2.133 -2.028,3.152 -1.152,1.02 -2.796,1.758 -4.988,2.223 l -2.519,0.535 0.453,2.137 40.59,-8.625 -0.453,-2.137 -2.524,0.535 c -2.289,0.489 -4.191,0.485 -5.711,-0.031 -1.094,-0.34 -2.07,-1.074 -2.933,-2.262 -0.606,-0.828 -1.332,-3.191 -2.161,-7.082 L 431.121,69.9922 c -0.848,-3.9766 -1.16,-6.5039 -0.961,-7.5859 0.219,-1.0938 0.899,-2.1368 2.031,-3.1524 1.149,-1.043 2.793,-1.7812 4.981,-2.2461 l 2.523,-0.5351 -0.449,-2.1133 -40.594,8.6289 0.45,2.1094 2.527,-0.5352 c 2.289,-0.4844 4.195,-0.4609 5.715,0.0508 1.086,0.3242 2.066,1.0781 2.933,2.2617 0.602,0.8125 1.328,3.1758 2.161,7.0859 l 5.113,24.0625 z m 123.204,26.188 -1.188,-26.457 -2.414,0.164 c -0.656,6.703 -3.055,12.227 -7.203,16.586 -4.149,4.34 -8.774,6.684 -13.922,7.047 -3.969,0.277 -7.191,-0.559 -9.66,-2.531 -2.481,-1.954 -3.809,-4.325 -4,-7.098 -0.125,-1.738 0.183,-3.34 0.91,-4.754 0.984,-1.914 2.676,-3.855 5.043,-5.809 1.746,-1.425 5.816,-3.996 12.211,-7.7262 8.961,-5.2187 14.902,-9.9687 17.852,-14.2421 2.929,-4.2774 4.199,-9.0157 3.835,-14.2461 -0.46,-6.6211 -3.457,-12.1446 -8.937,-16.5547 -5.5,-4.4063 -12.231,-6.3399 -20.172,-5.7852 -2.496,0.1758 -4.851,0.5977 -7.031,1.2539 -2.176,0.6719 -4.903,1.8242 -8.156,3.4571 -1.825,0.9101 -3.336,1.3945 -4.528,1.4765 -1.019,0.0742 -2.125,-0.2304 -3.293,-0.9297 -1.191,-0.6992 -2.195,-1.832 -3.008,-3.3789 l -2.152,0.1524 2.09,29.9258 2.156,-0.1524 c 1.129,-8.5391 3.973,-15.1719 8.571,-19.9453 4.578,-4.7734 9.691,-7.3555 15.335,-7.75 4.372,-0.3047 7.926,0.6484 10.684,2.8437 2.762,2.1915 4.254,4.875 4.473,8.0274 0.133,1.8711 -0.242,3.7226 -1.117,5.5508 -0.875,1.8047 -2.25,3.5859 -4.18,5.3047 -1.926,1.7187 -5.352,4.0234 -10.32,6.914 -6.954,4.0547 -11.93,7.4336 -14.907,10.1485 -3,2.7109 -5.218,5.6757 -6.703,8.8668 -1.48,3.192 -2.101,6.645 -1.84,10.356 0.442,6.301 3.153,11.527 8.09,15.652 4.961,4.106 10.961,5.906 18.004,5.414 2.574,-0.179 5.047,-0.648 7.414,-1.437 1.805,-0.606 3.981,-1.621 6.504,-3.082 2.547,-1.442 4.355,-2.211 5.391,-2.282 1.019,-0.07 1.839,0.192 2.461,0.77 0.644,0.578 1.289,2.035 1.953,4.375 z m 62.461,-52.1914 -27.848,-3.4219 -2.375,-8.0899 c -0.777,-2.6914 -1.055,-4.8632 -0.848,-6.5312 0.274,-2.2266 1.364,-3.7422 3.278,-4.5547 1.109,-0.5078 3.746,-0.6445 7.894,-0.4609 l 0.266,-2.1446 -26.223,-3.2187 -0.262,2.1445 c 2.762,0.7813 4.961,2.2383 6.532,4.3867 1.593,2.1289 3.371,6.3789 5.289,12.7188 l 20.484,66.3903 1.109,0.137 36.368,-61.1836 c 3.472,-5.7968 6.168,-9.3789 8.109,-10.75 1.48,-1.0507 3.43,-1.5117 5.859,-1.4179 l 0.262,-2.1446 -38.152,-4.6836 -0.266,2.1446 1.57,0.1953 c 3.059,0.3711 5.164,1.0742 6.293,2.082 0.778,0.7188 1.106,1.668 0.957,2.836 -0.082,0.6953 -0.289,1.3945 -0.617,2.0976 -0.125,0.3516 -0.879,1.7266 -2.285,4.1524 z m -2.512,4.0625 -15.067,25.7149 -8.777,-28.6407 z m 80.254,76.4999 8.808,-24.98 -2.3,-0.75 c -3.118,5.968 -7.411,10.187 -12.891,12.679 -5.469,2.469 -10.637,2.914 -15.547,1.321 -3.785,-1.231 -6.461,-3.215 -8.008,-5.969 -1.57,-2.738 -1.914,-5.434 -1.051,-8.078 0.536,-1.657 1.422,-3.028 2.622,-4.071 1.636,-1.402 3.929,-2.57 6.855,-3.492 2.152,-0.668 6.891,-1.523 14.219,-2.594 10.258,-1.484 17.547,-3.652 21.886,-6.515 4.313,-2.863 7.27,-6.785 8.887,-11.77 2.055,-6.3122 1.352,-12.5544 -2.082,-18.695 -3.449,-6.1484 -8.965,-10.4648 -16.535,-12.9219 -2.379,-0.7734 -4.723,-1.2617 -6.988,-1.4726 -2.274,-0.1914 -5.231,-0.1446 -8.86,0.1484 -2.031,0.1602 -3.613,0.0469 -4.75,-0.3242 -0.972,-0.3164 -1.882,-1.0078 -2.707,-2.0977 -0.843,-1.0937 -1.347,-2.5195 -1.515,-4.2578 l -2.059,-0.6679 -9.269,28.5312 2.054,0.668 c 4.246,-7.4961 9.367,-12.5821 15.418,-15.2813 6.031,-2.7109 11.742,-3.1914 17.125,-1.4414 4.164,1.3516 7.106,3.5703 8.84,6.6367 1.738,3.0664 2.117,6.1094 1.141,9.1172 -0.582,1.7891 -1.621,3.3633 -3.117,4.7305 -1.489,1.3476 -3.434,2.4805 -5.864,3.3518 -2.426,0.875 -6.469,1.722 -12.16,2.547 -7.969,1.152 -13.848,2.422 -17.625,3.82 -3.797,1.394 -6.961,3.309 -9.531,5.715 -2.567,2.402 -4.438,5.371 -5.59,8.91 -1.953,6.008 -1.395,11.871 1.645,17.543 3.058,5.664 7.945,9.586 14.66,11.766 2.453,0.796 4.922,1.289 7.414,1.445 1.898,0.113 4.297,-0.016 7.183,-0.422 2.899,-0.383 4.868,-0.418 5.856,-0.094 0.969,0.313 1.629,0.864 1.992,1.633 0.383,0.777 0.43,2.371 0.172,4.785 z M 718.242,194 752.68,138.895 c 2.586,-4.141 4.425,-6.668 5.5,-7.598 1.082,-0.906 2.429,-1.363 4.039,-1.367 1.609,-0.012 3.711,0.781 6.254,2.371 l 1.543,0.965 1.144,-1.832 -35.48,-22.172 -1.145,1.832 1.797,1.125 c 2.883,1.801 4.727,3.422 5.531,4.847 0.809,1.422 1.067,2.856 0.77,4.278 -0.281,1.429 -1.754,4.281 -4.406,8.519 l -21.821,34.926 c -1.949,3.117 -3.32,4.977 -4.101,5.547 -0.778,0.602 -1.75,0.91 -2.918,0.961 -1.149,0.035 -2.254,-0.277 -3.305,-0.934 -1.695,-1.058 -3.422,-2.867 -5.176,-5.449 l -2.008,1.242 17.7,26.817 z m 71.418,9.586 c 6.914,0.445 12.34,0.012 16.27,-1.309 3.933,-1.297 7.371,-3.711 10.312,-7.222 4.117,-4.903 5.746,-10.61 4.906,-17.11 -0.851,-6.48 -4.449,-12.402 -10.789,-17.722 -6.007,-5.043 -11.914,-7.461 -17.687,-7.266 -5.774,0.191 -10.461,2.445 -14.047,6.719 -2.738,3.265 -4.184,6.91 -4.352,10.972 -0.156,4.047 1.137,8.942 3.856,14.692 -7.914,-0.367 -13.539,0.055 -16.84,1.25 -3.316,1.183 -6.281,3.316 -8.867,6.398 -3.418,4.075 -4.695,9.114 -3.832,15.114 0.851,5.988 4.289,11.503 10.308,16.558 5.809,4.875 11.411,7.25 16.836,7.129 5.446,-0.105 9.754,-2.07 12.969,-5.902 2.418,-2.883 3.68,-6.129 3.844,-9.75 0.152,-3.606 -0.809,-7.809 -2.887,-12.551 z m -5.344,-0.57 c -0.128,2.422 -0.73,4.789 -1.75,7.093 -1.003,2.321 -2.449,4.575 -4.3,6.782 -3.266,3.89 -6.606,6.156 -10.012,6.824 -2.594,0.539 -4.981,-0.133 -7.203,-1.996 -2.004,-1.684 -3.098,-3.828 -3.289,-6.473 -0.203,-2.621 0.629,-5.008 2.441,-7.164 1.824,-2.18 4.508,-3.789 8.051,-4.84 3.543,-1.015 8.902,-1.09 16.062,-0.226 z M 783.297,186 c -0.227,-1.602 -0.242,-2.918 -0.063,-3.945 0.282,-1.539 1.028,-3.524 2.239,-5.926 1.207,-2.406 2.711,-4.695 4.55,-6.887 2.364,-2.82 4.7,-4.855 6.997,-6.164 2.316,-1.297 4.5,-1.812 6.527,-1.523 2.039,0.277 3.762,0.992 5.172,2.175 2.191,1.84 3.347,4.196 3.511,7.047 0.137,2.856 -0.949,5.676 -3.277,8.446 -4.871,5.808 -13.43,8.078 -25.656,6.777 z m 63.48,71.734 c 5.981,-5.195 10.84,-10.882 14.563,-17.082 2.316,-3.769 3.765,-7.382 4.316,-10.859 0.555,-3.449 0.492,-6.781 -0.179,-9.961 -0.684,-3.195 -2.114,-6.062 -4.321,-8.598 -2.504,-2.882 -5.515,-4.851 -9,-5.902 -3.511,-1.051 -7.41,-1.269 -11.718,-0.703 -3.133,0.445 -6.786,1.637 -10.965,3.566 -5.618,2.657 -10.817,6.067 -15.618,10.239 -6.519,5.668 -11.726,11.781 -15.585,18.343 -3.2,5.434 -4.676,10.715 -4.403,15.883 0.27,5.153 1.883,9.445 4.848,12.856 3.027,3.488 7.043,5.699 12.039,6.656 4.992,0.957 10.121,0.394 15.355,-1.664 7.243,-2.824 14.118,-7.082 20.668,-12.774 z m -11.929,-13.535 c -10.5,9.133 -16.668,14.387 -18.504,15.778 -4.34,3.265 -7.739,4.968 -10.156,5.113 -1.583,0.074 -3.102,-0.699 -4.543,-2.356 -1.102,-1.269 -1.606,-2.582 -1.54,-3.937 0.083,-1.981 1.266,-4.309 3.547,-6.953 2.254,-2.653 11.2,-10.746 26.809,-24.313 8.48,-7.375 14.422,-12.035 17.832,-13.961 2.461,-1.375 4.418,-1.965 5.848,-1.746 1.433,0.215 2.726,0.996 3.906,2.356 1.285,1.476 1.777,2.988 1.469,4.554 -0.571,2.668 -2.504,5.594 -5.801,8.754 z m 47.097,68.977 c 6.645,-4.317 12.25,-9.266 16.801,-14.891 2.82,-3.406 4.754,-6.785 5.785,-10.148 1.032,-3.34 1.43,-6.653 1.207,-9.895 -0.23,-3.258 -1.25,-6.293 -3.078,-9.113 -2.082,-3.203 -4.789,-5.57 -8.094,-7.098 -3.332,-1.527 -7.164,-2.285 -11.503,-2.324 -3.168,0 -6.954,0.672 -11.356,2.004 -5.93,1.852 -11.555,4.5 -16.891,7.965 -7.246,4.703 -13.25,10.035 -17.988,15.996 -3.922,4.937 -6.121,9.961 -6.566,15.117 -0.457,5.137 0.547,9.613 3.008,13.402 2.515,3.875 6.179,6.625 10.992,8.266 4.816,1.645 9.972,1.801 15.437,0.492 7.571,-1.789 14.969,-5.047 22.246,-9.773 z m -9.925,-15.063 c -11.672,7.578 -18.508,11.926 -20.524,13.043 -4.754,2.633 -8.351,3.852 -10.769,3.657 -1.575,-0.149 -2.969,-1.125 -4.168,-2.969 -0.914,-1.41 -1.235,-2.778 -0.977,-4.11 0.356,-1.953 1.852,-4.093 4.481,-6.394 2.601,-2.309 12.585,-9.082 29.929,-20.344 9.426,-6.121 15.957,-9.91 19.602,-11.344 2.633,-1.019 4.648,-1.328 6.035,-0.914 1.387,0.41 2.562,1.364 3.543,2.875 1.062,1.641 1.34,3.203 0.816,4.715 -0.937,2.563 -3.258,5.192 -6.965,7.86 z m -7.731,76.489 58.891,-27.457 c 4.425,-2.067 7.343,-3.184 8.754,-3.379 1.398,-0.164 2.777,0.187 4.132,1.054 1.356,0.868 2.684,2.676 3.954,5.395 l 0.765,1.652 1.961,-0.914 -17.683,-37.918 -1.961,0.91 0.898,1.922 c 1.438,3.078 2.098,5.446 2,7.078 -0.098,1.633 -0.664,2.981 -1.687,4.008 -1.012,1.043 -3.805,2.633 -8.333,4.746 l -37.32,17.403 c -3.336,1.554 -5.496,2.367 -6.465,2.421 -0.976,0.079 -1.965,-0.191 -2.968,-0.781 -0.981,-0.601 -1.739,-1.461 -2.262,-2.586 -0.848,-1.808 -1.309,-4.265 -1.375,-7.39 l -2.36,-0.047 0.243,32.129 0.816,1.754" />
      </g>
    </g>
  </g>
</svg>
